<?xml version="1.0" encoding="utf-8"?>
<!-- Generator: Adobe Illustrator 23.0.6, SVG Export Plug-In . SVG Version: 6.00 Build 0)  -->
<svg version="1.1" id="Layer_1" xmlns="http://www.w3.org/2000/svg" xmlns:xlink="http://www.w3.org/1999/xlink" x="0px" y="0px"
	 viewBox="0 0 64 64" style="enable-background:new 0 0 64 64;" xml:space="preserve">
<style type="text/css">
	.st0{fill:#C9DA98;}
	.st1{fill:#FFFFFF;}
</style>
<circle class="st0" cx="32" cy="32" r="31"/>
<g>
	<path class="st1" d="M30.7,49c-1.8,0-3.6-0.1-5.4-0.2c-1.8-0.1-3.7-0.4-5.6-0.8V15.8c1.5-0.3,3.2-0.5,5-0.6
		c1.8-0.1,3.5-0.2,5.1-0.2c2.1,0,4.1,0.2,5.8,0.5c1.8,0.3,3.3,0.8,4.6,1.6c1.3,0.7,2.3,1.7,3,2.9c0.7,1.2,1.1,2.7,1.1,4.4
		c0,2.7-1.3,4.8-3.8,6.3c2.1,0.8,3.6,1.9,4.3,3.3c0.8,1.4,1.2,2.9,1.2,4.7c0,3.5-1.3,6.1-3.8,7.9C39.5,48.2,35.7,49,30.7,49z
		 M26.9,28.4h3.6c2.3,0,4-0.3,4.9-0.9c1-0.6,1.5-1.5,1.5-2.9c0-1.3-0.5-2.3-1.5-2.8c-1-0.5-2.5-0.8-4.5-0.8c-0.6,0-1.3,0-2.1,0
		c-0.7,0-1.4,0.1-2,0.1V28.4z M26.9,34.1v8.6c0.5,0.1,1.1,0.1,1.8,0.1c0.6,0,1.3,0,2.1,0c2.2,0,4-0.3,5.4-1c1.4-0.6,2.1-1.8,2.1-3.6
		c0-1.5-0.6-2.6-1.7-3.3c-1.2-0.7-2.8-1-4.9-1H26.9z"/>
</g>
</svg>
