<?xml version="1.0" encoding="utf-8"?>
<!-- Generator: Adobe Illustrator 23.0.6, SVG Export Plug-In . SVG Version: 6.00 Build 0)  -->
<svg version="1.1" id="Layer_1" xmlns="http://www.w3.org/2000/svg" xmlns:xlink="http://www.w3.org/1999/xlink" x="0px" y="0px"
	 viewBox="0 0 64 64" style="enable-background:new 0 0 64 64;" xml:space="preserve">
<style type="text/css">
	.st0{fill:#FFDD9A;}
	.st1{fill:#FFFFFF;}
</style>
<circle class="st0" cx="32" cy="32" r="31"/>
<g>
	<path class="st1" d="M31.9,49.4c-5.4,0-9.5-1.5-12.4-4.5s-4.2-7.3-4.2-12.8c0-2.8,0.4-5.2,1.3-7.4c0.9-2.2,2-4,3.6-5.5
		c1.5-1.5,3.3-2.6,5.4-3.4c2.1-0.8,4.3-1.2,6.8-1.2c1.4,0,2.7,0.1,3.8,0.3c1.2,0.2,2.2,0.4,3,0.7c0.9,0.3,1.6,0.6,2.2,0.8
		s1,0.5,1.2,0.7l-2.2,6c-1-0.5-2.2-1-3.6-1.4c-1.4-0.4-2.9-0.6-4.6-0.6c-1.2,0-2.3,0.2-3.4,0.6c-1.1,0.4-2.1,1-2.9,1.8
		c-0.8,0.8-1.5,1.9-2,3.3c-0.5,1.3-0.8,3-0.8,4.9c0,1.5,0.2,3,0.5,4.3c0.3,1.3,0.9,2.5,1.6,3.4c0.8,1,1.7,1.7,3,2.3
		c1.2,0.6,2.7,0.8,4.4,0.8c1.1,0,2.1-0.1,2.9-0.2c0.9-0.1,1.6-0.3,2.3-0.5s1.3-0.4,1.8-0.6c0.5-0.2,1-0.4,1.4-0.6l2.1,6
		c-1.1,0.6-2.5,1.2-4.5,1.7C36.6,49.1,34.4,49.4,31.9,49.4z"/>
</g>
<polygon class="st1" points="54.5,30.5 50.2,30.5 50.2,26.3 47.2,26.3 47.2,30.5 43,30.5 43,33.5 47.2,33.5 47.2,37.7 50.2,37.7 
	50.2,33.5 54.5,33.5 "/>
</svg>
