<?xml version="1.0" encoding="utf-8"?>
<!-- Generator: Adobe Illustrator 23.0.6, SVG Export Plug-In . SVG Version: 6.00 Build 0)  -->
<svg version="1.1" id="Layer_1" xmlns="http://www.w3.org/2000/svg" xmlns:xlink="http://www.w3.org/1999/xlink" x="0px" y="0px"
	 viewBox="0 0 64 64" style="enable-background:new 0 0 64 64;" xml:space="preserve">
<style type="text/css">
	.st0{fill:#EE9978;}
	.st1{fill:#FFFFFF;}
</style>
<circle class="st0" cx="32" cy="32" r="31"/>
<g>
	<path class="st1" d="M48,32c0,2.9-0.4,5.4-1.3,7.5c-0.9,2.1-2.2,3.9-3.8,5.3c-1.6,1.4-3.7,2.5-6,3.2s-5,1.1-8,1.1
		c-1.3,0-2.9-0.1-4.7-0.2c-1.8-0.1-3.6-0.3-5.3-0.7V15.8c1.7-0.3,3.5-0.5,5.4-0.6c1.9-0.1,3.5-0.2,4.8-0.2c2.8,0,5.4,0.3,7.8,1
		c2.3,0.6,4.3,1.6,6,3c1.7,1.4,2.9,3.1,3.8,5.3C47.6,26.4,48,28.9,48,32z M26.4,42.5c0.4,0,0.8,0.1,1.2,0.1c0.5,0,1,0,1.7,0
		c3.7,0,6.5-0.9,8.3-2.8c1.8-1.9,2.7-4.5,2.7-7.8c0-3.5-0.9-6.1-2.6-7.9c-1.7-1.8-4.5-2.7-8.2-2.7c-0.5,0-1,0-1.6,0
		c-0.5,0-1.1,0.1-1.5,0.1V42.5z"/>
</g>
</svg>
