<?xml version="1.0" encoding="utf-8"?>
<!-- Generator: Adobe Illustrator 23.0.6, SVG Export Plug-In . SVG Version: 6.00 Build 0)  -->
<svg version="1.1" id="Layer_1" xmlns="http://www.w3.org/2000/svg" xmlns:xlink="http://www.w3.org/1999/xlink" x="0px" y="0px"
	 viewBox="0 0 64 64" style="enable-background:new 0 0 64 64;" xml:space="preserve">
<style type="text/css">
	.st0{fill:#97D89A;}
	.st1{fill:#FFFFFF;}
</style>
<circle class="st0" cx="32" cy="32" r="31"/>
<g>
	<path class="st1" d="M40.8,47.2c-0.4-1.2-0.8-2.3-1.2-3.6c-0.4-1.2-0.9-2.4-1.3-3.6h-13c-0.4,1.2-0.8,2.4-1.3,3.6
		c-0.4,1.2-0.8,2.4-1.2,3.6h-7.8c1.3-3.6,2.4-6.9,3.6-9.9s2.2-5.9,3.3-8.6c1.1-2.7,2.1-5.2,3.2-7.7c1-2.4,2.1-4.8,3.3-7.1h7.1
		c1.1,2.3,2.2,4.7,3.2,7.1c1.1,2.4,2.1,5,3.2,7.7c1.1,2.7,2.2,5.6,3.3,8.6s2.3,6.4,3.6,9.9H40.8z M31.8,21.5c-0.2,0.5-0.4,1.1-0.7,2
		c-0.3,0.8-0.7,1.8-1.1,2.9c-0.4,1.1-0.9,2.3-1.4,3.6c-0.5,1.3-1,2.7-1.5,4.1h9.5c-0.5-1.4-1-2.8-1.5-4.1c-0.5-1.3-0.9-2.5-1.4-3.6
		c-0.4-1.1-0.8-2-1.1-2.9C32.3,22.6,32,21.9,31.8,21.5z"/>
</g>
<rect x="44.6" y="28" class="st1" width="11.5" height="3"/>
</svg>
