<svg width="34" height="34" xmlns="http://www.w3.org/2000/svg"><g fill="none" fill-rule="evenodd"><circle fill="#DC4646" cx="17.5" cy="17.5" r="16.5"/><path d="M17 0c9.389 0 17 7.611 17 17s-7.611 17-17 17S0 26.389 0 17 7.611 0 17 0zm0 2C8.716 2 2 8.716 2 17c0 8.284 6.716 15 15 15 8.284 0 15-6.716 15-15 0-8.284-6.716-15-15-15z" fill="#FFF" fill-rule="nonzero"/><path d="M16.983 23.136c.646 0 1.248-.126 1.806-.378a3.85 3.85 0 001.45-1.156c.407-.519.728-1.175.96-1.968.232-.793.348-1.728.348-2.805 0-1.077-.116-2.01-.348-2.8-.232-.791-.553-1.446-.96-1.964a3.85 3.85 0 00-1.45-1.156 4.336 4.336 0 00-1.806-.379c-.646 0-1.247.127-1.802.379a3.79 3.79 0 00-1.436 1.156c-.403.518-.719 1.173-.948 1.963-.23.79-.345 1.724-.345 2.801 0 1.077.115 2.012.345 2.805.23.793.545 1.45.947 1.968a3.79 3.79 0 001.437 1.156 4.307 4.307 0 001.802.378zm0-1.912c-.272 0-.534-.066-.786-.196s-.476-.36-.672-.688c-.195-.33-.353-.777-.472-1.343-.119-.567-.178-1.29-.178-2.168 0-.873.06-1.592.178-2.159.12-.567.277-1.014.472-1.343.196-.329.42-.558.672-.688a1.691 1.691 0 011.58 0c.259.13.487.36.685.688.198.329.358.776.48 1.343s.183 1.286.183 2.159c0 .878-.06 1.6-.183 2.168-.122.566-.282 1.014-.48 1.343-.198.328-.426.558-.684.688-.258.13-.523.196-.795.196z" fill="#FFF" fill-rule="nonzero"/></g></svg>