<svg width="34" height="34" xmlns="http://www.w3.org/2000/svg"><g fill="none" fill-rule="evenodd"><circle fill="#DC4646" cx="17.5" cy="17.5" r="16.5"/><path d="M17 0c9.389 0 17 7.611 17 17s-7.611 17-17 17S0 26.389 0 17 7.611 0 17 0zm0 2C8.716 2 2 8.716 2 17c0 8.284 6.716 15 15 15 8.284 0 15-6.716 15-15 0-8.284-6.716-15-15-15z" fill="#FFF" fill-rule="nonzero"/><path d="M20.854 23.342v-1.726h-2.133V11h-1.93L13 14.213l.74.995a.73.73 0 00.731.247.853.853 0 00.331-.162l1.615-1.343a13.659 13.659 0 00-.034.918v6.748h-2.448v1.726h6.919z" fill="#FFF" fill-rule="nonzero"/></g></svg>