<svg width="34" height="34" xmlns="http://www.w3.org/2000/svg"><g fill="none" fill-rule="evenodd"><circle fill="#DC4646" cx="17.5" cy="17.5" r="16.5"/><path d="M17 0c9.389 0 17 7.611 17 17s-7.611 17-17 17S0 26.389 0 17 7.611 0 17 0zm0 2C8.716 2 2 8.716 2 17c0 8.284 6.716 15 15 15 8.284 0 15-6.716 15-15 0-8.284-6.716-15-15-15z" fill="#FFF" fill-rule="nonzero"/><path d="M15.854 23.47v-1.726h-2.133V11.127h-1.93L8 14.34l.74.995a.73.73 0 00.731.246.853.853 0 00.331-.161l1.615-1.343a13.659 13.659 0 00-.034.918v6.749H8.935v1.726h6.919zm5.916.136c.646 0 1.248-.127 1.806-.379a3.85 3.85 0 001.45-1.156c.407-.518.728-1.174.96-1.968.232-.793.348-1.728.348-2.805 0-1.076-.116-2.01-.348-2.8-.232-.79-.553-1.445-.96-1.964a3.85 3.85 0 00-1.45-1.156A4.336 4.336 0 0021.77 11c-.646 0-1.247.126-1.802.378a3.79 3.79 0 00-1.436 1.156c-.403.519-.719 1.173-.948 1.964-.23.79-.345 1.724-.345 2.8 0 1.077.115 2.012.345 2.806.23.793.545 1.449.948 1.967a3.79 3.79 0 001.436 1.156 4.307 4.307 0 001.802.378zm0-1.913c-.272 0-.534-.065-.786-.196-.252-.13-.476-.36-.672-.688-.195-.329-.353-.776-.472-1.343s-.178-1.29-.178-2.168c0-.872.06-1.592.178-2.158.12-.567.277-1.015.472-1.344.196-.328.42-.558.672-.688a1.691 1.691 0 011.58 0c.259.13.487.36.685.688.198.33.358.777.48 1.344.122.566.183 1.286.183 2.159 0 .878-.06 1.6-.183 2.167-.122.567-.282 1.014-.48 1.343-.198.329-.426.558-.684.688-.258.13-.523.196-.795.196z" fill="#FFF" fill-rule="nonzero"/></g></svg>