<svg width="34" height="34" xmlns="http://www.w3.org/2000/svg"><g fill="none" fill-rule="evenodd"><circle fill="#57A15B" cx="17.5" cy="17.5" r="16.5"/><path d="M17 0c9.389 0 17 7.611 17 17s-7.611 17-17 17S0 26.389 0 17 7.611 0 17 0zm0 2C8.716 2 2 8.716 2 17c0 8.284 6.716 15 15 15 8.284 0 15-6.716 15-15 0-8.284-6.716-15-15-15z" fill="#FFF" fill-rule="nonzero"/><path d="M11.468 22.269v-1.421H9.711v-8.743H8.122L5 14.751l.609.819a.601.601 0 00.602.203.702.702 0 00.273-.133l1.33-1.106a11.248 11.248 0 00-.028.756v5.558H5.77v1.421h5.698zm4.872.112a3.57 3.57 0 001.488-.311 3.17 3.17 0 001.193-.953c.336-.427.6-.967.791-1.62.191-.653.287-1.423.287-2.31s-.096-1.656-.287-2.307c-.191-.65-.455-1.19-.791-1.617a3.17 3.17 0 00-1.194-.951A3.57 3.57 0 0016.34 12c-.532 0-1.027.104-1.484.312a3.122 3.122 0 00-1.183.952c-.331.427-.591.966-.78 1.617-.19.65-.284 1.42-.284 2.306 0 .887.095 1.657.284 2.31.188.653.449 1.194.78 1.62.331.427.726.745 1.183.953.457.207.952.311 1.484.311zm0-1.575c-.224 0-.44-.054-.647-.161-.208-.107-.393-.296-.553-.567-.162-.27-.291-.64-.389-1.106-.098-.467-.147-1.062-.147-1.785 0-.719.049-1.311.147-1.778.098-.467.228-.835.389-1.106.16-.27.345-.46.553-.567a1.393 1.393 0 011.301 0c.213.107.4.296.564.567.163.27.295.64.395 1.106.1.467.151 1.06.151 1.778 0 .723-.05 1.318-.15 1.785-.1.467-.233.835-.396 1.106-.163.27-.351.46-.564.567-.212.107-.43.161-.654.161zm8.12 1.575a3.57 3.57 0 001.488-.311 3.17 3.17 0 001.193-.953c.336-.427.6-.967.791-1.62.191-.653.287-1.423.287-2.31s-.096-1.656-.287-2.307c-.191-.65-.455-1.19-.791-1.617a3.17 3.17 0 00-1.193-.951A3.57 3.57 0 0024.46 12c-.532 0-1.027.104-1.484.312a3.122 3.122 0 00-1.183.952c-.331.427-.591.966-.78 1.617-.19.65-.284 1.42-.284 2.306 0 .887.095 1.657.284 2.31.188.653.449 1.194.78 1.62.331.427.726.745 1.183.953.457.207.952.311 1.484.311zm0-1.575c-.224 0-.44-.054-.648-.161-.207-.107-.392-.296-.553-.567-.16-.27-.29-.64-.388-1.106-.098-.467-.147-1.062-.147-1.785 0-.719.049-1.311.147-1.778.098-.467.228-.835.389-1.106.16-.27.345-.46.552-.567a1.393 1.393 0 011.302 0c.213.107.4.296.564.567.163.27.295.64.395 1.106.1.467.151 1.06.151 1.778 0 .723-.05 1.318-.15 1.785-.1.467-.233.835-.396 1.106-.163.27-.351.46-.564.567-.212.107-.43.161-.654.161z" fill="#FFF" fill-rule="nonzero"/></g></svg>