<svg width="34" height="34" xmlns="http://www.w3.org/2000/svg"><g fill="none" fill-rule="evenodd"><circle fill="#DC4646" cx="17.5" cy="17.5" r="16.5"/><path d="M17 0c9.389 0 17 7.611 17 17s-7.611 17-17 17S0 26.389 0 17 7.611 0 17 0zm0 2C8.716 2 2 8.716 2 17c0 8.284 6.716 15 15 15 8.284 0 15-6.716 15-15 0-8.284-6.716-15-15-15z" fill="#FFF" fill-rule="nonzero"/><path d="M15.854 23.47v-1.726h-2.133V11.127h-1.93L8 14.34l.74.995a.73.73 0 00.731.246.853.853 0 00.331-.161l1.615-1.343a13.659 13.659 0 00-.034.918v6.749H8.935v1.726h6.919zm10.14 0v-1.377a.75.75 0 00-.216-.561c-.145-.142-.345-.213-.6-.213h-2.77c-.25 0-.516.024-.8.072-.283.048-.569.115-.858.2l2.618-2.678c.329-.334.64-.665.935-.994.295-.329.554-.667.778-1.016.224-.348.4-.715.531-1.1.13-.386.196-.805.196-1.259a3.63 3.63 0 00-.281-1.444 3.184 3.184 0 00-.79-1.118 3.64 3.64 0 00-1.229-.723A4.667 4.667 0 0021.915 11a5.2 5.2 0 00-1.556.225c-.482.15-.91.376-1.284.676-.373.3-.685.677-.934 1.13-.25.454-.42.98-.51 1.582l1.24.22c.318.051.563.03.736-.063.173-.094.31-.282.412-.566.051-.18.13-.348.238-.501a1.784 1.784 0 01.897-.667c.19-.065.398-.098.625-.098.515 0 .915.143 1.198.43.283.285.425.703.425 1.253 0 .312-.04.61-.119.893-.08.283-.198.562-.357.837a6.081 6.081 0 01-.595.841c-.238.286-.513.585-.825.897l-3.654 3.664a1.233 1.233 0 00-.315.471 1.423 1.423 0 00-.093.48v.765h8.55z" fill="#FFF" fill-rule="nonzero"/></g></svg>