<svg width="34" height="34" xmlns="http://www.w3.org/2000/svg"><g fill="none" fill-rule="evenodd"><circle fill="#DC4646" cx="17.5" cy="17.5" r="16.5"/><path d="M17 0c9.389 0 17 7.611 17 17s-7.611 17-17 17S0 26.389 0 17 7.611 0 17 0zm0 2C8.716 2 2 8.716 2 17c0 8.284 6.716 15 15 15 8.284 0 15-6.716 15-15 0-8.284-6.716-15-15-15z" fill="#FFF" fill-rule="nonzero"/><path d="M15.854 23.47v-1.726h-2.133V11.127h-1.93L8 14.34l.74.995a.73.73 0 00.731.246.853.853 0 00.331-.161l1.615-1.343a13.659 13.659 0 00-.034.918v6.749H8.935v1.726h6.919zm5.848.136c.567 0 1.11-.081 1.628-.243a3.97 3.97 0 001.364-.726c.391-.323.703-.724.935-1.203.232-.48.348-1.033.348-1.662 0-1.422-.708-2.366-2.125-2.83.306-.102.577-.23.812-.383.235-.153.434-.34.595-.561.162-.221.284-.48.366-.778.082-.297.123-.642.123-1.033a2.984 2.984 0 00-1.003-2.252 3.544 3.544 0 00-1.186-.684A4.688 4.688 0 0021.974 11c-.555 0-1.072.075-1.551.225-.48.15-.905.376-1.28.676-.373.3-.685.677-.934 1.13-.25.454-.42.98-.51 1.582l1.232.22c.323.051.57.03.74-.063.17-.094.308-.282.416-.566.051-.18.13-.348.238-.501a1.784 1.784 0 01.897-.667c.19-.065.398-.098.624-.098.516 0 .914.142 1.195.425.28.283.42.694.42 1.232 0 .255-.035.49-.106.706-.07.215-.2.4-.387.553-.186.152-.444.271-.773.357-.329.085-.75.127-1.267.127v1.649c.618 0 1.107.044 1.467.132.36.088.632.212.816.374.184.161.302.357.353.586.05.23.076.486.076.77 0 .215-.041.432-.123.65a1.728 1.728 0 01-.37.586 1.88 1.88 0 01-.612.421 2.11 2.11 0 01-.858.162c-.261 0-.492-.037-.693-.111a1.789 1.789 0 01-.54-.31 2.454 2.454 0 01-.43-.472 5.43 5.43 0 01-.36-.595.704.704 0 00-.506-.374c-.235-.051-.489-.02-.761.093l-1.037.425c.187.55.405 1.03.654 1.441.25.411.549.752.897 1.024.349.272.753.476 1.212.612.459.137.988.204 1.589.204z" fill="#FFF" fill-rule="nonzero"/></g></svg>