<svg width="34" height="34" xmlns="http://www.w3.org/2000/svg"><g fill="none" fill-rule="evenodd"><circle fill="#DC4646" cx="17.5" cy="17.5" r="16.5"/><path d="M17 0c9.389 0 17 7.611 17 17s-7.611 17-17 17S0 26.389 0 17 7.611 0 17 0zm0 2C8.716 2 2 8.716 2 17c0 8.284 6.716 15 15 15 8.284 0 15-6.716 15-15 0-8.284-6.716-15-15-15z" fill="#FFF" fill-rule="nonzero"/><path d="M15.854 23.342v-1.726h-2.133V11h-1.93L8 14.213l.74.995a.73.73 0 00.731.247.853.853 0 00.331-.162l1.615-1.343a13.659 13.659 0 00-.034.918v6.748H8.935v1.726h6.919zm9.027 0V20.41h.96a.448.448 0 00.345-.132.45.45 0 00.123-.319v-1.326h-1.428V11h-2.227l-5.78 7.744.247 1.172a.564.564 0 00.225.357.66.66 0 00.404.137h5.091v2.932h2.04zm-2.04-4.709h-3.485l3.57-4.972c-.028.238-.05.466-.064.684a9.537 9.537 0 00-.021.616v3.672z" fill="#FFF" fill-rule="nonzero"/></g></svg>