<svg width="34" height="34" xmlns="http://www.w3.org/2000/svg"><g fill="none" fill-rule="evenodd"><circle fill="#DC4646" cx="17.5" cy="17.5" r="16.5"/><path d="M17 0c9.389 0 17 7.611 17 17s-7.611 17-17 17S0 26.389 0 17 7.611 0 17 0zm0 2C8.716 2 2 8.716 2 17c0 8.284 6.716 15 15 15 8.284 0 15-6.716 15-15 0-8.284-6.716-15-15-15z" fill="#FFF" fill-rule="nonzero"/><path d="M16.551 23.47v-1.377a.75.75 0 00-.217-.561c-.144-.142-.344-.213-.599-.213h-2.771c-.25 0-.516.024-.799.072-.283.048-.57.115-.858.2l2.617-2.678c.33-.334.64-.665.936-.994.294-.329.553-.667.777-1.016.224-.348.401-.715.532-1.1.13-.386.195-.805.195-1.259a3.63 3.63 0 00-.28-1.444 3.184 3.184 0 00-.791-1.118 3.64 3.64 0 00-1.228-.723A4.667 4.667 0 0012.47 11a5.2 5.2 0 00-1.556.225c-.481.15-.909.376-1.283.676-.374.3-.686.677-.935 1.13-.25.454-.42.98-.51 1.582l1.241.22c.317.051.562.03.735-.063.173-.094.31-.282.412-.566.052-.18.13-.348.239-.501a1.784 1.784 0 01.896-.667c.19-.065.398-.098.625-.098.516 0 .915.143 1.198.43.284.285.426.703.426 1.253 0 .312-.04.61-.12.893-.079.283-.198.562-.357.837a6.081 6.081 0 01-.595.841c-.238.286-.512.585-.824.897l-3.655 3.664a1.233 1.233 0 00-.314.471 1.423 1.423 0 00-.094.48v.765h8.551zm5.636.136c.645 0 1.248-.127 1.806-.379a3.85 3.85 0 001.449-1.156c.408-.518.728-1.174.96-1.968.233-.793.349-1.728.349-2.805 0-1.076-.116-2.01-.349-2.8-.232-.79-.552-1.445-.96-1.964a3.85 3.85 0 00-1.45-1.156A4.336 4.336 0 0022.187 11c-.645 0-1.246.126-1.802.378a3.79 3.79 0 00-1.436 1.156c-.402.519-.718 1.173-.948 1.964-.23.79-.344 1.724-.344 2.8 0 1.077.115 2.012.344 2.806.23.793.546 1.449.948 1.967a3.79 3.79 0 001.436 1.156 4.307 4.307 0 001.802.378zm0-1.913c-.273 0-.535-.065-.787-.196-.252-.13-.476-.36-.671-.688-.196-.329-.353-.776-.472-1.343s-.179-1.29-.179-2.168c0-.872.06-1.592.179-2.158.119-.567.276-1.015.472-1.344.195-.328.42-.558.671-.688a1.691 1.691 0 011.581 0c.258.13.486.36.684.688.199.33.359.777.48 1.344.123.566.183 1.286.183 2.159 0 .878-.06 1.6-.182 2.167-.122.567-.282 1.014-.48 1.343-.199.329-.427.558-.685.688-.258.13-.523.196-.795.196z" fill="#FFF" fill-rule="nonzero"/></g></svg>