<svg width="34" height="34" xmlns="http://www.w3.org/2000/svg"><g fill="none" fill-rule="evenodd"><circle fill="#DC4646" cx="17.5" cy="17.5" r="16.5"/><path d="M17 0c9.389 0 17 7.611 17 17s-7.611 17-17 17S0 26.389 0 17 7.611 0 17 0zm0 2C8.716 2 2 8.716 2 17c0 8.284 6.716 15 15 15 8.284 0 15-6.716 15-15 0-8.284-6.716-15-15-15z" fill="#FFF" fill-rule="nonzero"/><path d="M16.551 23.47v-1.377a.75.75 0 00-.217-.561c-.144-.142-.344-.213-.599-.213h-2.771c-.25 0-.516.024-.799.072-.283.048-.57.115-.858.2l2.617-2.678c.33-.334.64-.665.936-.994.294-.329.553-.667.777-1.016.224-.348.401-.715.532-1.1.13-.386.195-.805.195-1.259a3.63 3.63 0 00-.28-1.444 3.184 3.184 0 00-.791-1.118 3.64 3.64 0 00-1.228-.723A4.667 4.667 0 0012.47 11a5.2 5.2 0 00-1.556.225c-.481.15-.909.376-1.283.676-.374.3-.686.677-.935 1.13-.25.454-.42.98-.51 1.582l1.241.22c.317.051.562.03.735-.063.173-.094.31-.282.412-.566.052-.18.13-.348.239-.501a1.784 1.784 0 01.896-.667c.19-.065.398-.098.625-.098.516 0 .915.143 1.198.43.284.285.426.703.426 1.253 0 .312-.04.61-.12.893-.079.283-.198.562-.357.837a6.081 6.081 0 01-.595.841c-.238.286-.512.585-.824.897l-3.655 3.664a1.233 1.233 0 00-.314.471 1.423 1.423 0 00-.094.48v.765h8.551zm5.568.136c.566 0 1.109-.081 1.627-.243a3.97 3.97 0 001.364-.726c.392-.323.703-.724.936-1.203.232-.48.348-1.033.348-1.662 0-1.422-.708-2.366-2.125-2.83.306-.102.577-.23.812-.383.235-.153.433-.34.595-.561.161-.221.283-.48.365-.778.082-.297.123-.642.123-1.033 0-.441-.086-.855-.259-1.24a2.984 2.984 0 00-.744-1.012 3.544 3.544 0 00-1.185-.684A4.688 4.688 0 0022.39 11c-.556 0-1.073.075-1.552.225-.479.15-.905.376-1.279.676-.374.3-.686.677-.935 1.13-.25.454-.42.98-.51 1.582l1.233.22c.323.051.569.03.739-.063.17-.094.309-.282.416-.566.052-.18.13-.348.238-.501a1.784 1.784 0 01.897-.667c.19-.065.398-.098.625-.098.516 0 .914.142 1.194.425.28.283.421.694.421 1.232 0 .255-.035.49-.106.706-.071.215-.2.4-.387.553-.187.152-.445.271-.774.357-.328.085-.75.127-1.266.127v1.649c.618 0 1.106.044 1.466.132.36.088.632.212.816.374.184.161.302.357.353.586.051.23.076.486.076.77 0 .215-.04.432-.123.65a1.728 1.728 0 01-.37.586 1.88 1.88 0 01-.611.421 2.11 2.11 0 01-.859.162c-.26 0-.492-.037-.693-.111a1.789 1.789 0 01-.54-.31 2.454 2.454 0 01-.429-.472 5.43 5.43 0 01-.361-.595.704.704 0 00-.506-.374c-.235-.051-.488-.02-.76.093l-1.037.425c.186.55.405 1.03.654 1.441.25.411.548.752.897 1.024.348.272.752.476 1.211.612.459.137.989.204 1.59.204z" fill="#FFF" fill-rule="nonzero"/></g></svg>