<svg width="34" height="34" xmlns="http://www.w3.org/2000/svg"><g fill="none" fill-rule="evenodd"><circle fill="#DC4646" cx="17.5" cy="17.5" r="16.5"/><path d="M17 0c9.389 0 17 7.611 17 17s-7.611 17-17 17S0 26.389 0 17 7.611 0 17 0zm0 2C8.716 2 2 8.716 2 17c0 8.284 6.716 15 15 15 8.284 0 15-6.716 15-15 0-8.284-6.716-15-15-15z" fill="#FFF" fill-rule="nonzero"/><path d="M16.551 23.47v-1.377a.75.75 0 00-.217-.561c-.144-.142-.344-.213-.599-.213h-2.771c-.25 0-.516.024-.799.072-.283.048-.57.115-.858.2l2.617-2.678c.33-.334.64-.665.936-.994.294-.329.553-.667.777-1.016.224-.348.401-.715.532-1.1.13-.386.195-.805.195-1.259a3.63 3.63 0 00-.28-1.444 3.184 3.184 0 00-.791-1.118 3.64 3.64 0 00-1.228-.723A4.667 4.667 0 0012.47 11a5.2 5.2 0 00-1.556.225c-.481.15-.909.376-1.283.676-.374.3-.686.677-.935 1.13-.25.454-.42.98-.51 1.582l1.241.22c.317.051.562.03.735-.063.173-.094.31-.282.412-.566.052-.18.13-.348.239-.501a1.784 1.784 0 01.896-.667c.19-.065.398-.098.625-.098.516 0 .915.143 1.198.43.284.285.426.703.426 1.253 0 .312-.04.61-.12.893-.079.283-.198.562-.357.837a6.081 6.081 0 01-.595.841c-.238.286-.512.585-.824.897l-3.655 3.664a1.233 1.233 0 00-.314.471 1.423 1.423 0 00-.094.48v.765h8.551zm5.066.136c.674 0 1.296-.108 1.866-.324a4.356 4.356 0 001.47-.905 4.14 4.14 0 00.965-1.394c.232-.54.349-1.14.349-1.797 0-.527-.085-1.02-.255-1.48a3.316 3.316 0 00-.761-1.198 3.583 3.583 0 00-1.25-.803c-.496-.196-1.067-.293-1.713-.293a7.134 7.134 0 00-1.419.144l.4-2.329h3.187c.25 0 .46-.027.633-.08.173-.055.315-.131.425-.23.11-.1.19-.216.238-.349.048-.133.073-.282.073-.446v-.986h-6.188l-1.038 6.069 1.454.408a4.915 4.915 0 011.726-.323c.697 0 1.228.174 1.593.523.366.348.549.843.549 1.483 0 .334-.044.647-.132.94a2.102 2.102 0 01-.4.756 1.86 1.86 0 01-.675.501 2.333 2.333 0 01-.961.183c-.357 0-.66-.045-.91-.136a3.924 3.924 0 01-.654-.302 32.93 32.93 0 01-.502-.302.85.85 0 00-.45-.136.705.705 0 00-.595.315l-.723.986a5.723 5.723 0 001.577 1.05c.31.139.642.25.999.331.357.082.731.123 1.122.123z" fill="#FFF" fill-rule="nonzero"/></g></svg>