<svg width="34" height="34" xmlns="http://www.w3.org/2000/svg"><g fill="none" fill-rule="evenodd"><circle fill="#DC4646" cx="17.5" cy="17.5" r="16.5"/><path d="M17 0c9.389 0 17 7.611 17 17s-7.611 17-17 17S0 26.389 0 17 7.611 0 17 0zm0 2C8.716 2 2 8.716 2 17c0 8.284 6.716 15 15 15 8.284 0 15-6.716 15-15 0-8.284-6.716-15-15-15z" fill="#FFF" fill-rule="nonzero"/><path d="M16.551 23.47v-1.377a.75.75 0 00-.217-.561c-.144-.142-.344-.213-.599-.213h-2.771c-.25 0-.516.024-.799.072-.283.048-.57.115-.858.2l2.617-2.678c.33-.334.64-.665.936-.994.294-.329.553-.667.777-1.016.224-.348.401-.715.532-1.1.13-.386.195-.805.195-1.259a3.63 3.63 0 00-.28-1.444 3.184 3.184 0 00-.791-1.118 3.64 3.64 0 00-1.228-.723A4.667 4.667 0 0012.47 11a5.2 5.2 0 00-1.556.225c-.481.15-.909.376-1.283.676-.374.3-.686.677-.935 1.13-.25.454-.42.98-.51 1.582l1.241.22c.317.051.562.03.735-.063.173-.094.31-.282.412-.566.052-.18.13-.348.239-.501a1.784 1.784 0 01.896-.667c.19-.065.398-.098.625-.098.516 0 .915.143 1.198.43.284.285.426.703.426 1.253 0 .312-.04.61-.12.893-.079.283-.198.562-.357.837a6.081 6.081 0 01-.595.841c-.238.286-.512.585-.824.897l-3.655 3.664a1.233 1.233 0 00-.314.471 1.423 1.423 0 00-.094.48v.765h8.551zm5.678.136c.663 0 1.265-.111 1.806-.332a4.285 4.285 0 001.394-.901c.388-.38.689-.825.901-1.335.213-.51.319-1.05.319-1.623 0-.623-.103-1.166-.31-1.628a3.386 3.386 0 00-.82-1.151 3.41 3.41 0 00-1.165-.689 4.03 4.03 0 00-1.343-.23c-.289 0-.558.026-.808.077a3.34 3.34 0 00-.697.221l.375-.45 3.654-4.429h-2.082c-.283 0-.535.054-.756.162a1.38 1.38 0 00-.502.382l-2.864 3.859c-.482.646-.84 1.275-1.076 1.887a5.023 5.023 0 00-.352 1.81c0 .646.099 1.237.297 1.773a3.9 3.9 0 00.858 1.381c.375.385.828.684 1.36.897.533.212 1.137.319 1.811.319zm-.043-1.888a2.36 2.36 0 01-.888-.152 1.706 1.706 0 01-1.015-1.11 2.856 2.856 0 01-.128-.88c0-.311.05-.597.149-.858.099-.26.238-.486.416-.676.179-.19.393-.337.642-.442.25-.105.524-.157.825-.157.317 0 .606.048.866.144.261.097.485.237.672.421.187.184.331.41.433.676.102.266.153.567.153.901a2.148 2.148 0 01-.604 1.521c-.186.193-.41.343-.67.451-.261.108-.544.162-.85.162z" fill="#FFF" fill-rule="nonzero"/></g></svg>