<svg width="34" height="34" xmlns="http://www.w3.org/2000/svg"><g fill="none" fill-rule="evenodd"><circle fill="#DC4646" cx="17.5" cy="17.5" r="16.5"/><path d="M17 0c9.389 0 17 7.611 17 17s-7.611 17-17 17S0 26.389 0 17 7.611 0 17 0zm0 2C8.716 2 2 8.716 2 17c0 8.284 6.716 15 15 15 8.284 0 15-6.716 15-15 0-8.284-6.716-15-15-15z" fill="#FFF" fill-rule="nonzero"/><path d="M16.551 23.47v-1.377a.75.75 0 00-.217-.561c-.144-.142-.344-.213-.599-.213h-2.771c-.25 0-.516.024-.799.072-.283.048-.57.115-.858.2l2.617-2.678c.33-.334.64-.665.936-.994.294-.329.553-.667.777-1.016.224-.348.401-.715.532-1.1.13-.386.195-.805.195-1.259a3.63 3.63 0 00-.28-1.444 3.184 3.184 0 00-.791-1.118 3.64 3.64 0 00-1.228-.723A4.667 4.667 0 0012.47 11a5.2 5.2 0 00-1.556.225c-.481.15-.909.376-1.283.676-.374.3-.686.677-.935 1.13-.25.454-.42.98-.51 1.582l1.241.22c.317.051.562.03.735-.063.173-.094.31-.282.412-.566.052-.18.13-.348.239-.501a1.784 1.784 0 01.896-.667c.19-.065.398-.098.625-.098.516 0 .915.143 1.198.43.284.285.426.703.426 1.253 0 .312-.04.61-.12.893-.079.283-.198.562-.357.837a6.081 6.081 0 01-.595.841c-.238.286-.512.585-.824.897l-3.655 3.664a1.233 1.233 0 00-.314.471 1.423 1.423 0 00-.094.48v.765h8.551zm5.652.136c.646 0 1.236-.087 1.768-.26a4.105 4.105 0 001.369-.73c.38-.315.674-.696.884-1.144.21-.448.314-.946.314-1.496 0-.703-.17-1.305-.51-1.806-.34-.502-.883-.877-1.631-1.127.583-.255 1.018-.611 1.304-1.07.286-.46.43-1.006.43-1.641 0-.476-.097-.917-.29-1.322a3.154 3.154 0 00-.811-1.054 3.889 3.889 0 00-1.245-.701A4.72 4.72 0 0022.203 11c-.572 0-1.099.085-1.58.255-.482.17-.897.404-1.246.701-.348.298-.619.65-.811 1.054a3.038 3.038 0 00-.29 1.322c0 .635.144 1.181.43 1.64.286.46.72.816 1.305 1.072-.748.249-1.293.624-1.633 1.126-.34.501-.51 1.103-.51 1.806 0 .55.105 1.048.315 1.496.21.448.504.829.884 1.143.38.315.836.558 1.369.731.532.173 1.122.26 1.767.26zm0-7.413c-.322 0-.589-.05-.799-.152a1.329 1.329 0 01-.501-.409 1.581 1.581 0 01-.263-.582 2.959 2.959 0 01-.077-.676c0-.215.031-.422.094-.62a1.42 1.42 0 01.293-.523c.133-.15.303-.27.51-.361.207-.09.454-.136.743-.136.29 0 .537.045.744.136.207.09.377.211.51.361s.231.325.293.523c.063.198.094.405.094.62 0 .233-.026.458-.077.676a1.581 1.581 0 01-.263.582c-.125.17-.292.306-.502.409-.21.101-.476.152-.799.152zm0 5.619c-.322 0-.604-.048-.845-.145a1.664 1.664 0 01-.6-.395 1.622 1.622 0 01-.357-.595 2.262 2.262 0 01-.119-.744c0-.611.158-1.086.472-1.423.315-.337.798-.506 1.45-.506.651 0 1.134.169 1.449.506.314.337.472.811.472 1.423 0 .267-.04.515-.12.744-.079.23-.198.428-.357.595a1.664 1.664 0 01-.599.396c-.24.096-.523.144-.846.144z" fill="#FFF" fill-rule="nonzero"/></g></svg>