<svg width="34" height="34" xmlns="http://www.w3.org/2000/svg"><g fill="none" fill-rule="evenodd"><circle fill="#DC4646" cx="17.5" cy="17.5" r="16.5"/><path d="M17 0c9.389 0 17 7.611 17 17s-7.611 17-17 17S0 26.389 0 17 7.611 0 17 0zm0 2C8.716 2 2 8.716 2 17c0 8.284 6.716 15 15 15 8.284 0 15-6.716 15-15 0-8.284-6.716-15-15-15z" fill="#FFF" fill-rule="nonzero"/><path d="M16.551 23.47v-1.377a.75.75 0 00-.217-.561c-.144-.142-.344-.213-.599-.213h-2.771c-.25 0-.516.024-.799.072-.283.048-.57.115-.858.2l2.617-2.678c.33-.334.64-.665.936-.994.294-.329.553-.667.777-1.016.224-.348.401-.715.532-1.1.13-.386.195-.805.195-1.259a3.63 3.63 0 00-.28-1.444 3.184 3.184 0 00-.791-1.118 3.64 3.64 0 00-1.228-.723A4.667 4.667 0 0012.47 11a5.2 5.2 0 00-1.556.225c-.481.15-.909.376-1.283.676-.374.3-.686.677-.935 1.13-.25.454-.42.98-.51 1.582l1.241.22c.317.051.562.03.735-.063.173-.094.31-.282.412-.566.052-.18.13-.348.239-.501a1.784 1.784 0 01.896-.667c.19-.065.398-.098.625-.098.516 0 .915.143 1.198.43.284.285.426.703.426 1.253 0 .312-.04.61-.12.893-.079.283-.198.562-.357.837a6.081 6.081 0 01-.595.841c-.238.286-.512.585-.824.897l-3.655 3.664a1.233 1.233 0 00-.314.471 1.423 1.423 0 00-.094.48v.765h8.551zm4.463 0c.271 0 .514-.051.726-.153.213-.102.376-.227.489-.375l2.745-3.918c.21-.289.399-.584.566-.884.167-.3.31-.61.429-.927.119-.317.21-.651.272-1.003a6.37 6.37 0 00.093-1.113c0-.6-.096-1.152-.288-1.653a3.73 3.73 0 00-.825-1.296 3.69 3.69 0 00-1.309-.846C23.396 11.1 22.816 11 22.17 11c-.64 0-1.223.108-1.747.323a4.17 4.17 0 00-1.347.871 3.836 3.836 0 00-.867 1.284 4.019 4.019 0 00-.306 1.56c0 .6.099 1.123.297 1.568.198.445.459.814.782 1.109a3.26 3.26 0 001.092.663 3.57 3.57 0 001.228.221c.358 0 .696-.041 1.016-.123a3.46 3.46 0 00.888-.361l-.238.306-.246.314-3.867 4.735h2.159zm1.122-6.605c-.618 0-1.087-.17-1.407-.51-.32-.34-.48-.836-.48-1.488 0-.283.043-.546.131-.79.088-.244.214-.455.379-.633a1.71 1.71 0 01.595-.417c.232-.099.495-.148.79-.148.289 0 .553.043.79.131.238.088.444.217.617.387s.307.378.404.625c.096.246.144.531.144.854 0 .289-.044.555-.132.799a1.803 1.803 0 01-.378.629c-.164.176-.37.313-.616.412-.247.1-.526.149-.837.149z" fill="#FFF" fill-rule="nonzero"/></g></svg>