<svg width="34" height="34" xmlns="http://www.w3.org/2000/svg"><g fill="none" fill-rule="evenodd"><circle fill="#DC6A46" cx="17.5" cy="17.5" r="16.5"/><path d="M17 0c9.389 0 17 7.611 17 17s-7.611 17-17 17S0 26.389 0 17 7.611 0 17 0zm0 2C8.716 2 2 8.716 2 17c0 8.284 6.716 15 15 15 8.284 0 15-6.716 15-15 0-8.284-6.716-15-15-15z" fill="#FFF" fill-rule="nonzero"/><path d="M12.352 23.605c.567 0 1.11-.08 1.628-.242a3.97 3.97 0 001.364-.726c.391-.323.703-.724.935-1.203.232-.48.349-1.033.349-1.662 0-1.422-.709-2.366-2.126-2.83.306-.102.577-.23.812-.383.235-.153.434-.34.595-.561.162-.221.284-.48.366-.778.082-.297.123-.642.123-1.033a2.984 2.984 0 00-1.003-2.252 3.544 3.544 0 00-1.186-.684A4.688 4.688 0 0012.624 11c-.555 0-1.072.075-1.551.225-.48.15-.905.376-1.28.676-.373.3-.685.677-.934 1.13-.25.454-.42.98-.51 1.582l1.232.22c.323.051.57.03.74-.063.17-.094.308-.282.416-.566.051-.18.13-.348.238-.501a1.784 1.784 0 01.897-.667c.19-.065.398-.098.624-.098.516 0 .914.142 1.195.425.28.283.42.694.42 1.232 0 .255-.035.49-.106.706-.07.215-.2.4-.387.553-.187.152-.444.271-.773.357-.329.085-.75.127-1.267.127v1.649c.618 0 1.107.044 1.467.132.36.088.632.212.816.374.184.161.301.357.352.586.052.23.077.486.077.77 0 .215-.041.432-.123.65a1.728 1.728 0 01-.37.586 1.88 1.88 0 01-.612.421 2.11 2.11 0 01-.859.162c-.26 0-.491-.037-.692-.111a1.789 1.789 0 01-.54-.31 2.454 2.454 0 01-.43-.472 5.43 5.43 0 01-.36-.595.704.704 0 00-.506-.374c-.235-.051-.489-.02-.761.093L8 20.325c.187.55.405 1.03.655 1.441.249.411.548.752.896 1.024.349.272.752.476 1.211.612.46.137.99.204 1.59.204zm14.152-.136v-1.377a.75.75 0 00-.216-.56c-.145-.142-.345-.213-.6-.213h-2.77c-.25 0-.516.024-.8.072-.283.048-.569.115-.858.2l2.618-2.678c.329-.334.64-.665.935-.994.295-.329.554-.667.778-1.016.224-.348.4-.715.531-1.1.13-.386.195-.805.195-1.259a3.63 3.63 0 00-.28-1.444 3.184 3.184 0 00-.79-1.118 3.64 3.64 0 00-1.229-.723A4.667 4.667 0 0022.424 11a5.2 5.2 0 00-1.555.225c-.482.15-.91.376-1.284.676-.373.3-.685.677-.934 1.13-.25.454-.42.98-.51 1.582l1.24.22c.318.051.563.03.736-.063.173-.094.31-.282.412-.566.051-.18.13-.348.238-.501a1.784 1.784 0 01.897-.667c.19-.065.398-.098.624-.098.516 0 .916.143 1.199.43.283.285.425.703.425 1.253 0 .312-.04.61-.119.893-.08.283-.198.562-.357.837a6.081 6.081 0 01-.595.841c-.238.286-.513.585-.825.897l-3.654 3.664a1.233 1.233 0 00-.315.471 1.423 1.423 0 00-.094.48v.765h8.552z" fill="#FFF" fill-rule="nonzero"/></g></svg>