<svg width="34" height="34" xmlns="http://www.w3.org/2000/svg"><g fill="none" fill-rule="evenodd"><circle fill="#DC6A46" cx="17.5" cy="17.5" r="16.5"/><path d="M17 0c9.389 0 17 7.611 17 17s-7.611 17-17 17S0 26.389 0 17 7.611 0 17 0zm0 2C8.716 2 2 8.716 2 17c0 8.284 6.716 15 15 15 8.284 0 15-6.716 15-15 0-8.284-6.716-15-15-15z" fill="#FFF" fill-rule="nonzero"/><path d="M12.352 23.605c.567 0 1.11-.08 1.628-.242a3.97 3.97 0 001.364-.726c.391-.323.703-.724.935-1.203.232-.48.349-1.033.349-1.662 0-1.422-.709-2.366-2.126-2.83.306-.102.577-.23.812-.383.235-.153.434-.34.595-.561.162-.221.284-.48.366-.778.082-.297.123-.642.123-1.033a2.984 2.984 0 00-1.003-2.252 3.544 3.544 0 00-1.186-.684A4.688 4.688 0 0012.624 11c-.555 0-1.072.075-1.551.225-.48.15-.905.376-1.28.676-.373.3-.685.677-.934 1.13-.25.454-.42.98-.51 1.582l1.232.22c.323.051.57.03.74-.063.17-.094.308-.282.416-.566.051-.18.13-.348.238-.501a1.784 1.784 0 01.897-.667c.19-.065.398-.098.624-.098.516 0 .914.142 1.195.425.28.283.42.694.42 1.232 0 .255-.035.49-.106.706-.07.215-.2.4-.387.553-.187.152-.444.271-.773.357-.329.085-.75.127-1.267.127v1.649c.618 0 1.107.044 1.467.132.36.088.632.212.816.374.184.161.301.357.352.586.052.23.077.486.077.77 0 .215-.041.432-.123.65a1.728 1.728 0 01-.37.586 1.88 1.88 0 01-.612.421 2.11 2.11 0 01-.859.162c-.26 0-.491-.037-.692-.111a1.789 1.789 0 01-.54-.31 2.454 2.454 0 01-.43-.472 5.43 5.43 0 01-.36-.595.704.704 0 00-.506-.374c-.235-.051-.489-.02-.761.093L8 20.325c.187.55.405 1.03.655 1.441.249.411.548.752.896 1.024.349.272.752.476 1.211.612.46.137.99.204 1.59.204zm9.945 0c.646 0 1.235-.086 1.768-.259a4.105 4.105 0 001.368-.73c.38-.315.675-.696.884-1.144.21-.448.315-.946.315-1.496 0-.703-.17-1.305-.51-1.806-.34-.502-.884-.877-1.632-1.127.584-.255 1.019-.611 1.305-1.07.286-.46.429-1.006.429-1.641 0-.476-.096-.917-.289-1.322a3.154 3.154 0 00-.812-1.054 3.889 3.889 0 00-1.245-.701A4.72 4.72 0 0022.297 11c-.572 0-1.1.085-1.581.255-.482.17-.897.404-1.245.701-.349.298-.62.65-.812 1.054a3.038 3.038 0 00-.289 1.322c0 .635.143 1.181.43 1.64.285.46.72.816 1.304 1.072-.748.249-1.292.624-1.632 1.126-.34.501-.51 1.103-.51 1.806 0 .55.105 1.048.314 1.496.21.448.505.829.884 1.143.38.315.836.558 1.369.731.533.173 1.122.26 1.768.26zm0-7.412c-.323 0-.59-.05-.799-.152a1.329 1.329 0 01-.502-.409 1.581 1.581 0 01-.263-.582 2.959 2.959 0 01-.076-.676c0-.215.03-.422.093-.62a1.42 1.42 0 01.293-.523c.133-.15.303-.27.51-.361.207-.09.455-.136.744-.136s.537.045.744.136c.207.09.377.211.51.361s.23.325.293.523c.062.198.093.405.093.62 0 .233-.025.458-.076.676a1.581 1.581 0 01-.264.582c-.124.17-.291.306-.501.409-.21.101-.476.152-.799.152zm0 5.619c-.323 0-.605-.048-.846-.145a1.664 1.664 0 01-.599-.395 1.622 1.622 0 01-.357-.595 2.262 2.262 0 01-.119-.744c0-.611.157-1.086.472-1.423.314-.337.797-.506 1.449-.506s1.135.169 1.45.506c.314.337.471.811.471 1.423 0 .267-.04.515-.119.744-.08.23-.198.428-.357.595a1.664 1.664 0 01-.6.396c-.24.096-.522.144-.845.144z" fill="#FFF" fill-rule="nonzero"/></g></svg>