<svg width="34" height="34" xmlns="http://www.w3.org/2000/svg"><g fill="none" fill-rule="evenodd"><circle fill="#DC6A46" cx="17.5" cy="17.5" r="16.5"/><path d="M17 0c9.389 0 17 7.611 17 17s-7.611 17-17 17S0 26.389 0 17 7.611 0 17 0zm0 2C8.716 2 2 8.716 2 17c0 8.284 6.716 15 15 15 8.284 0 15-6.716 15-15 0-8.284-6.716-15-15-15z" fill="#FFF" fill-rule="nonzero"/><path d="M15.007 23.47v-2.933h.96a.448.448 0 00.345-.132.45.45 0 00.123-.319v-1.325h-1.428v-7.633H12.78L7 18.87l.247 1.173a.564.564 0 00.225.357.66.66 0 00.403.136h5.092v2.933h2.04zm-2.04-4.71H9.482l3.57-4.972c-.028.238-.05.466-.064.684a9.537 9.537 0 00-.021.617v3.671zm8.789 4.845c.646 0 1.248-.126 1.806-.378a3.85 3.85 0 001.45-1.156c.407-.518.728-1.174.96-1.968.232-.793.348-1.728.348-2.805 0-1.076-.116-2.01-.348-2.8-.232-.79-.553-1.445-.96-1.964a3.85 3.85 0 00-1.45-1.156A4.336 4.336 0 0021.756 11c-.646 0-1.247.126-1.802.378a3.79 3.79 0 00-1.437 1.156c-.402.519-.718 1.173-.947 1.964-.23.79-.345 1.724-.345 2.8 0 1.077.115 2.012.345 2.806.23.793.545 1.449.947 1.967a3.79 3.79 0 001.437 1.156 4.307 4.307 0 001.802.378zm0-1.912c-.272 0-.534-.065-.786-.196-.252-.13-.476-.36-.672-.688-.195-.329-.352-.776-.471-1.343-.12-.567-.179-1.29-.179-2.168 0-.872.06-1.592.178-2.158.12-.567.277-1.015.472-1.344.196-.328.42-.558.672-.688a1.691 1.691 0 011.58 0c.259.13.487.36.685.688.198.33.358.777.48 1.344.122.566.183 1.286.183 2.159 0 .878-.06 1.6-.183 2.167-.122.567-.282 1.014-.48 1.343-.198.329-.426.558-.684.688-.258.13-.523.196-.795.196z" fill="#FFF" fill-rule="nonzero"/></g></svg>