<svg width="34" height="34" xmlns="http://www.w3.org/2000/svg"><g fill="none" fill-rule="evenodd"><circle fill="#DC6A46" cx="17.5" cy="17.5" r="16.5"/><path d="M17 0c9.389 0 17 7.611 17 17s-7.611 17-17 17S0 26.389 0 17 7.611 0 17 0zm0 2C8.716 2 2 8.716 2 17c0 8.284 6.716 15 15 15 8.284 0 15-6.716 15-15 0-8.284-6.716-15-15-15z" fill="#FFF" fill-rule="nonzero"/><path d="M15.007 23.47v-2.933h.96a.448.448 0 00.345-.132.45.45 0 00.123-.319v-1.325h-1.428v-7.633H12.78L7 18.87l.247 1.173a.564.564 0 00.225.357.66.66 0 00.403.136h5.092v2.933h2.04zm-2.04-4.71H9.482l3.57-4.972c-.028.238-.05.466-.064.684a9.537 9.537 0 00-.021.617v3.671zm13.013 4.71v-1.377a.75.75 0 00-.216-.561c-.145-.142-.345-.213-.6-.213h-2.77c-.25 0-.516.024-.8.072-.283.048-.569.115-.858.2l2.618-2.678c.329-.334.64-.665.935-.994.295-.329.554-.667.778-1.016.224-.348.4-.715.531-1.1.13-.386.196-.805.196-1.259a3.63 3.63 0 00-.281-1.444 3.184 3.184 0 00-.79-1.118 3.64 3.64 0 00-1.229-.723A4.667 4.667 0 0021.901 11a5.2 5.2 0 00-1.556.225c-.482.15-.91.376-1.284.676-.373.3-.685.677-.934 1.13-.25.454-.42.98-.51 1.582l1.24.22c.318.051.563.03.736-.063.173-.094.31-.282.412-.566.051-.18.13-.348.238-.501a1.784 1.784 0 01.897-.667c.19-.065.398-.098.625-.098.515 0 .915.143 1.198.43.283.285.425.703.425 1.253 0 .312-.04.61-.119.893-.08.283-.198.562-.357.837a6.081 6.081 0 01-.595.841c-.238.286-.513.585-.825.897l-3.655 3.664a1.233 1.233 0 00-.314.471 1.423 1.423 0 00-.093.48v.765h8.55z" fill="#FFF" fill-rule="nonzero"/></g></svg>