<svg width="34" height="34" xmlns="http://www.w3.org/2000/svg"><g fill="none" fill-rule="evenodd"><circle fill="#DC6A46" cx="17.5" cy="17.5" r="16.5"/><path d="M17 0c9.389 0 17 7.611 17 17s-7.611 17-17 17S0 26.389 0 17 7.611 0 17 0zm0 2C8.716 2 2 8.716 2 17c0 8.284 6.716 15 15 15 8.284 0 15-6.716 15-15 0-8.284-6.716-15-15-15z" fill="#FFF" fill-rule="nonzero"/><path d="M15.007 23.342V20.41h.96a.448.448 0 00.345-.132.45.45 0 00.123-.319v-1.326h-1.428V11H12.78L7 18.744l.247 1.172a.564.564 0 00.225.357.66.66 0 00.403.137h5.092v2.932h2.04zm-2.04-4.709H9.482l3.57-4.972c-.028.238-.05.466-.064.684a9.537 9.537 0 00-.021.616v3.672zm8.22 4.845c.674 0 1.296-.108 1.865-.323a4.356 4.356 0 001.47-.905 4.14 4.14 0 00.966-1.394c.232-.541.348-1.14.348-1.798 0-.527-.085-1.02-.255-1.479a3.316 3.316 0 00-.76-1.198 3.583 3.583 0 00-1.25-.804c-.496-.195-1.067-.293-1.713-.293a7.134 7.134 0 00-1.42.144l.4-2.329h3.188c.249 0 .46-.026.633-.08.173-.054.314-.13.425-.23.11-.099.19-.215.238-.348.048-.133.072-.282.072-.447v-.986h-6.188l-1.037 6.07 1.453.407a4.915 4.915 0 011.726-.322c.697 0 1.228.174 1.594.522.365.349.548.843.548 1.484 0 .334-.044.647-.132.939a2.102 2.102 0 01-.4.756 1.86 1.86 0 01-.675.502 2.333 2.333 0 01-.96.183c-.358 0-.66-.046-.91-.136a3.924 3.924 0 01-.654-.302 32.93 32.93 0 01-.502-.302.85.85 0 00-.45-.136.705.705 0 00-.595.315l-.723.986a5.723 5.723 0 001.577 1.05c.309.138.642.249.998.33.358.083.732.124 1.122.124z" fill="#FFF" fill-rule="nonzero"/></g></svg>