<svg width="34" height="34" xmlns="http://www.w3.org/2000/svg"><g fill="none" fill-rule="evenodd"><circle fill="#DC6A46" cx="17.5" cy="17.5" r="16.5"/><path d="M17 0c9.389 0 17 7.611 17 17s-7.611 17-17 17S0 26.389 0 17 7.611 0 17 0zm0 2C8.716 2 2 8.716 2 17c0 8.284 6.716 15 15 15 8.284 0 15-6.716 15-15 0-8.284-6.716-15-15-15z" fill="#FFF" fill-rule="nonzero"/><path d="M15.007 23.47v-2.933h.96a.448.448 0 00.345-.132.45.45 0 00.123-.319v-1.325h-1.428v-7.633H12.78L7 18.87l.247 1.173a.564.564 0 00.225.357.66.66 0 00.403.136h5.092v2.933h2.04zm-2.04-4.71H9.482l3.57-4.972c-.028.238-.05.466-.064.684a9.537 9.537 0 00-.021.617v3.671zm7.616 4.71c.272 0 .514-.051.727-.153.212-.102.375-.227.489-.375l2.745-3.918c.21-.289.398-.584.565-.884.167-.3.31-.61.43-.927.118-.317.21-.651.271-1.003a6.37 6.37 0 00.094-1.113c0-.6-.096-1.152-.289-1.653a3.73 3.73 0 00-.824-1.296 3.69 3.69 0 00-1.31-.846C22.966 11.1 22.386 11 21.74 11c-.64 0-1.223.108-1.747.323a4.17 4.17 0 00-1.347.871 3.836 3.836 0 00-.867 1.284 4.019 4.019 0 00-.306 1.56c0 .6.1 1.123.297 1.568.199.445.46.814.783 1.109a3.26 3.26 0 001.092.663 3.57 3.57 0 001.228.221c.357 0 .696-.041 1.016-.123a3.46 3.46 0 00.888-.361l-.238.306-.247.314-3.867 4.735h2.159zm1.122-6.605c-.618 0-1.087-.17-1.407-.51-.32-.34-.48-.836-.48-1.488 0-.283.044-.546.132-.79.088-.244.214-.455.378-.633a1.71 1.71 0 01.595-.417c.232-.099.496-.148.79-.148.29 0 .553.043.791.131.238.088.443.217.616.387s.308.378.404.625c.096.246.145.531.145.854 0 .289-.044.555-.132.799a1.803 1.803 0 01-.378.629c-.165.176-.37.313-.617.412-.246.1-.525.149-.837.149z" fill="#FFF" fill-rule="nonzero"/></g></svg>