<svg width="34" height="34" xmlns="http://www.w3.org/2000/svg"><g fill="none" fill-rule="evenodd"><circle fill="#DC6A46" cx="17.5" cy="17.5" r="16.5"/><path d="M17 0c9.389 0 17 7.611 17 17s-7.611 17-17 17S0 26.389 0 17 7.611 0 17 0zm0 2C8.716 2 2 8.716 2 17c0 8.284 6.716 15 15 15 8.284 0 15-6.716 15-15 0-8.284-6.716-15-15-15z" fill="#FFF" fill-rule="nonzero"/><path d="M11.697 23.605c.675 0 1.297-.107 1.866-.323a4.356 4.356 0 001.47-.905A4.14 4.14 0 0016 20.983c.232-.54.348-1.14.348-1.797 0-.527-.085-1.02-.255-1.48a3.316 3.316 0 00-.76-1.198 3.583 3.583 0 00-1.25-.803c-.496-.196-1.067-.293-1.713-.293a7.134 7.134 0 00-1.42.144l.4-2.329h3.188c.249 0 .46-.027.633-.08.173-.055.314-.131.425-.23.11-.1.19-.216.238-.349.048-.133.072-.282.072-.446v-.986H9.717L8.68 17.205l1.454.408a4.915 4.915 0 011.725-.323c.697 0 1.228.174 1.594.523.365.348.548.843.548 1.483 0 .334-.044.647-.132.94a2.102 2.102 0 01-.4.756 1.86 1.86 0 01-.675.501 2.333 2.333 0 01-.96.183c-.357 0-.66-.045-.91-.136a3.924 3.924 0 01-.654-.302 32.93 32.93 0 01-.502-.302.85.85 0 00-.45-.136.705.705 0 00-.595.315L8 22.101a5.723 5.723 0 001.577 1.05c.309.139.642.25.998.331.357.082.732.123 1.123.123zm10.43 0c.646 0 1.248-.126 1.806-.378a3.85 3.85 0 001.45-1.156c.408-.518.728-1.174.96-1.968.232-.793.349-1.728.349-2.805 0-1.076-.117-2.01-.349-2.8-.232-.79-.552-1.445-.96-1.964a3.85 3.85 0 00-1.45-1.156A4.336 4.336 0 0022.127 11c-.646 0-1.247.126-1.802.378a3.79 3.79 0 00-1.436 1.156c-.403.519-.719 1.173-.948 1.964-.23.79-.345 1.724-.345 2.8 0 1.077.115 2.012.345 2.806.23.793.545 1.449.948 1.967a3.79 3.79 0 001.436 1.156 4.307 4.307 0 001.802.378zm0-1.912c-.272 0-.534-.065-.786-.196-.252-.13-.476-.36-.672-.688-.195-.329-.352-.776-.471-1.343-.12-.567-.179-1.29-.179-2.168 0-.872.06-1.592.179-2.158.119-.567.276-1.015.471-1.344.196-.328.42-.558.672-.688a1.691 1.691 0 011.58 0c.259.13.487.36.685.688.198.33.358.777.48 1.344.122.566.183 1.286.183 2.159 0 .878-.06 1.6-.183 2.167-.122.567-.282 1.014-.48 1.343-.198.329-.426.558-.684.688-.258.13-.523.196-.795.196z" fill="#FFF" fill-rule="nonzero"/></g></svg>