<svg width="34" height="34" xmlns="http://www.w3.org/2000/svg"><g fill="none" fill-rule="evenodd"><circle fill="#DC6A46" cx="17.5" cy="17.5" r="16.5"/><path d="M17 0c9.389 0 17 7.611 17 17s-7.611 17-17 17S0 26.389 0 17 7.611 0 17 0zm0 2C8.716 2 2 8.716 2 17c0 8.284 6.716 15 15 15 8.284 0 15-6.716 15-15 0-8.284-6.716-15-15-15z" fill="#FFF" fill-rule="nonzero"/><path d="M11.697 23.478c.675 0 1.297-.108 1.866-.323a4.356 4.356 0 001.47-.905A4.14 4.14 0 0016 20.856c.232-.541.348-1.14.348-1.798 0-.527-.085-1.02-.255-1.479a3.316 3.316 0 00-.76-1.198 3.583 3.583 0 00-1.25-.804c-.496-.195-1.067-.293-1.713-.293a7.134 7.134 0 00-1.42.144l.4-2.329h3.188c.249 0 .46-.026.633-.08.173-.054.314-.13.425-.23.11-.099.19-.215.238-.348.048-.133.072-.282.072-.447v-.986H9.717l-1.037 6.07 1.454.407a4.915 4.915 0 011.725-.322c.697 0 1.228.174 1.594.522.365.349.548.843.548 1.484 0 .334-.044.647-.132.939a2.102 2.102 0 01-.4.756 1.86 1.86 0 01-.675.502 2.333 2.333 0 01-.96.183c-.357 0-.66-.046-.91-.136a3.924 3.924 0 01-.654-.302 32.93 32.93 0 01-.502-.302.85.85 0 00-.45-.136.705.705 0 00-.595.315L8 21.974a5.723 5.723 0 001.577 1.05c.309.138.642.249.998.33.357.083.732.124 1.123.124zm14.374-.136v-1.726h-2.134V11h-1.929l-3.791 3.213.74.995a.73.73 0 00.731.247.853.853 0 00.331-.162l1.615-1.343a13.659 13.659 0 00-.034.918v6.748h-2.448v1.726h6.919z" fill="#FFF" fill-rule="nonzero"/></g></svg>