<svg width="34" height="34" xmlns="http://www.w3.org/2000/svg"><g fill="none" fill-rule="evenodd"><circle fill="#DC6A46" cx="17.5" cy="17.5" r="16.5"/><path d="M17 0c9.389 0 17 7.611 17 17s-7.611 17-17 17S0 26.389 0 17 7.611 0 17 0zm0 2C8.716 2 2 8.716 2 17c0 8.284 6.716 15 15 15 8.284 0 15-6.716 15-15 0-8.284-6.716-15-15-15z" fill="#FFF" fill-rule="nonzero"/><path d="M11.697 23.605c.675 0 1.297-.107 1.866-.323a4.356 4.356 0 001.47-.905A4.14 4.14 0 0016 20.983c.232-.54.348-1.14.348-1.797 0-.527-.085-1.02-.255-1.48a3.316 3.316 0 00-.76-1.198 3.583 3.583 0 00-1.25-.803c-.496-.196-1.067-.293-1.713-.293a7.134 7.134 0 00-1.42.144l.4-2.329h3.188c.249 0 .46-.027.633-.08.173-.055.314-.131.425-.23.11-.1.19-.216.238-.349.048-.133.072-.282.072-.446v-.986H9.717L8.68 17.205l1.454.408a4.915 4.915 0 011.725-.323c.697 0 1.228.174 1.594.523.365.348.548.843.548 1.483 0 .334-.044.647-.132.94a2.102 2.102 0 01-.4.756 1.86 1.86 0 01-.675.501 2.333 2.333 0 01-.96.183c-.357 0-.66-.045-.91-.136a3.924 3.924 0 01-.654-.302 32.93 32.93 0 01-.502-.302.85.85 0 00-.45-.136.705.705 0 00-.595.315L8 22.101a5.723 5.723 0 001.577 1.05c.309.139.642.25.998.331.357.082.732.123 1.123.123zm14.655-.136v-1.377a.75.75 0 00-.217-.56c-.145-.142-.345-.213-.6-.213h-2.77c-.25 0-.516.024-.8.072-.283.048-.569.115-.858.2l2.618-2.678c.329-.334.64-.665.935-.994.295-.329.554-.667.778-1.016.224-.348.4-.715.531-1.1.13-.386.195-.805.195-1.259a3.63 3.63 0 00-.28-1.444 3.184 3.184 0 00-.79-1.118 3.64 3.64 0 00-1.229-.723A4.667 4.667 0 0022.272 11a5.2 5.2 0 00-1.556.225c-.482.15-.91.376-1.284.676-.373.3-.685.677-.934 1.13-.25.454-.42.98-.51 1.582l1.24.22c.318.051.563.03.736-.063.173-.094.31-.282.412-.566.051-.18.13-.348.238-.501a1.784 1.784 0 01.897-.667c.19-.065.398-.098.625-.098.515 0 .915.143 1.198.43.283.285.425.703.425 1.253 0 .312-.04.61-.119.893-.08.283-.198.562-.357.837a6.081 6.081 0 01-.595.841c-.238.286-.513.585-.825.897l-3.654 3.664a1.233 1.233 0 00-.315.471 1.423 1.423 0 00-.093.48v.765h8.55z" fill="#FFF" fill-rule="nonzero"/></g></svg>