<svg width="34" height="34" xmlns="http://www.w3.org/2000/svg"><g fill="none" fill-rule="evenodd"><circle fill="#DC6A46" cx="17.5" cy="17.5" r="16.5"/><path d="M17 0c9.389 0 17 7.611 17 17s-7.611 17-17 17S0 26.389 0 17 7.611 0 17 0zm0 2C8.716 2 2 8.716 2 17c0 8.284 6.716 15 15 15 8.284 0 15-6.716 15-15 0-8.284-6.716-15-15-15z" fill="#FFF" fill-rule="nonzero"/><path d="M11.697 23.605c.675 0 1.297-.107 1.866-.323a4.356 4.356 0 001.47-.905A4.14 4.14 0 0016 20.983c.232-.54.348-1.14.348-1.797 0-.527-.085-1.02-.255-1.48a3.316 3.316 0 00-.76-1.198 3.583 3.583 0 00-1.25-.803c-.496-.196-1.067-.293-1.713-.293a7.134 7.134 0 00-1.42.144l.4-2.329h3.188c.249 0 .46-.027.633-.08.173-.055.314-.131.425-.23.11-.1.19-.216.238-.349.048-.133.072-.282.072-.446v-.986H9.717L8.68 17.205l1.454.408a4.915 4.915 0 011.725-.323c.697 0 1.228.174 1.594.523.365.348.548.843.548 1.483 0 .334-.044.647-.132.94a2.102 2.102 0 01-.4.756 1.86 1.86 0 01-.675.501 2.333 2.333 0 01-.96.183c-.357 0-.66-.045-.91-.136a3.924 3.924 0 01-.654-.302 32.93 32.93 0 01-.502-.302.85.85 0 00-.45-.136.705.705 0 00-.595.315L8 22.101a5.723 5.723 0 001.577 1.05c.309.139.642.25.998.331.357.082.732.123 1.123.123zm10.362 0c.567 0 1.11-.08 1.628-.242a3.97 3.97 0 001.364-.726c.391-.323.703-.724.935-1.203.232-.48.348-1.033.348-1.662 0-1.422-.708-2.366-2.125-2.83.306-.102.577-.23.812-.383.235-.153.434-.34.595-.561.162-.221.284-.48.366-.778.082-.297.123-.642.123-1.033a2.984 2.984 0 00-1.003-2.252 3.544 3.544 0 00-1.186-.684A4.688 4.688 0 0022.331 11c-.555 0-1.072.075-1.551.225-.48.15-.905.376-1.28.676-.373.3-.685.677-.934 1.13-.25.454-.42.98-.51 1.582l1.232.22c.323.051.57.03.74-.063.17-.094.308-.282.416-.566.051-.18.13-.348.238-.501a1.784 1.784 0 01.897-.667c.19-.065.398-.098.624-.098.516 0 .914.142 1.195.425.28.283.42.694.42 1.232 0 .255-.035.49-.106.706-.07.215-.2.4-.386.553-.188.152-.445.271-.774.357-.329.085-.75.127-1.267.127v1.649c.618 0 1.107.044 1.467.132.36.088.632.212.816.374.184.161.301.357.352.586.051.23.077.486.077.77 0 .215-.041.432-.123.65a1.728 1.728 0 01-.37.586 1.88 1.88 0 01-.612.421 2.11 2.11 0 01-.858.162c-.261 0-.492-.037-.693-.111a1.789 1.789 0 01-.54-.31 2.454 2.454 0 01-.43-.472 5.43 5.43 0 01-.36-.595.704.704 0 00-.506-.374c-.235-.051-.489-.02-.761.093l-1.037.425c.187.55.405 1.03.654 1.441.25.411.549.752.897 1.024.349.272.753.476 1.212.612.459.137.988.204 1.589.204z" fill="#FFF" fill-rule="nonzero"/></g></svg>