<svg width="34" height="34" xmlns="http://www.w3.org/2000/svg"><g fill="none" fill-rule="evenodd"><circle fill="#DC6A46" cx="17.5" cy="17.5" r="16.5"/><path d="M17 0c9.389 0 17 7.611 17 17s-7.611 17-17 17S0 26.389 0 17 7.611 0 17 0zm0 2C8.716 2 2 8.716 2 17c0 8.284 6.716 15 15 15 8.284 0 15-6.716 15-15 0-8.284-6.716-15-15-15z" fill="#FFF" fill-rule="nonzero"/><path d="M11.697 23.47c.675 0 1.297-.108 1.866-.323a4.356 4.356 0 001.47-.906A4.14 4.14 0 0016 20.847c.232-.54.348-1.14.348-1.798 0-.526-.085-1.02-.255-1.479a3.316 3.316 0 00-.76-1.198 3.583 3.583 0 00-1.25-.803c-.496-.196-1.067-.294-1.713-.294a7.134 7.134 0 00-1.42.145l.4-2.329h3.188c.249 0 .46-.027.633-.08.173-.055.314-.131.425-.23.11-.1.19-.216.238-.349.048-.133.072-.282.072-.446V11H9.717L8.68 17.069l1.454.408a4.915 4.915 0 011.725-.323c.697 0 1.228.174 1.594.523.365.348.548.843.548 1.483 0 .334-.044.647-.132.94a2.102 2.102 0 01-.4.756 1.86 1.86 0 01-.675.501 2.333 2.333 0 01-.96.183c-.357 0-.66-.045-.91-.136a3.924 3.924 0 01-.654-.302 32.93 32.93 0 01-.502-.302.85.85 0 00-.45-.136.705.705 0 00-.595.315L8 21.965a5.723 5.723 0 001.577 1.05c.309.139.642.25.998.331.357.082.732.123 1.123.123zm10.473 0c.662 0 1.265-.111 1.806-.332a4.285 4.285 0 001.394-.901c.388-.38.688-.824.9-1.334.213-.51.32-1.052.32-1.624 0-.623-.104-1.166-.31-1.628a3.386 3.386 0 00-.821-1.151 3.41 3.41 0 00-1.165-.689 4.03 4.03 0 00-1.343-.23c-.288 0-.558.026-.807.077a3.34 3.34 0 00-.697.221l.374-.45L25.476 11h-2.082c-.284 0-.536.054-.757.162a1.38 1.38 0 00-.502.382l-2.864 3.859c-.482.646-.84 1.275-1.075 1.887a5.023 5.023 0 00-.353 1.81c0 .646.1 1.237.297 1.773A3.9 3.9 0 0019 22.254c.374.385.827.684 1.36.897.533.212 1.136.319 1.81.319zm-.043-1.887a2.36 2.36 0 01-.888-.153 1.706 1.706 0 01-1.016-1.11 2.856 2.856 0 01-.127-.88c0-.311.05-.597.148-.858.1-.26.238-.486.417-.676.178-.19.392-.337.641-.442.25-.105.525-.157.825-.157.317 0 .606.048.867.145.26.096.485.236.672.42.186.184.331.41.433.676.102.266.153.567.153.901a2.148 2.148 0 01-.604 1.521c-.186.193-.41.343-.671.451-.26.108-.544.162-.85.162z" fill="#FFF" fill-rule="nonzero"/></g></svg>