<svg width="34" height="34" xmlns="http://www.w3.org/2000/svg"><g fill="none" fill-rule="evenodd"><circle fill="#DC6A46" cx="17.5" cy="17.5" r="16.5"/><path d="M17 0c9.389 0 17 7.611 17 17s-7.611 17-17 17S0 26.389 0 17 7.611 0 17 0zm0 2C8.716 2 2 8.716 2 17c0 8.284 6.716 15 15 15 8.284 0 15-6.716 15-15 0-8.284-6.716-15-15-15z" fill="#FFF" fill-rule="nonzero"/><path d="M11.697 23.605c.675 0 1.297-.107 1.866-.323a4.356 4.356 0 001.47-.905A4.14 4.14 0 0016 20.983c.232-.54.348-1.14.348-1.797 0-.527-.085-1.02-.255-1.48a3.316 3.316 0 00-.76-1.198 3.583 3.583 0 00-1.25-.803c-.496-.196-1.067-.293-1.713-.293a7.134 7.134 0 00-1.42.144l.4-2.329h3.188c.249 0 .46-.027.633-.08.173-.055.314-.131.425-.23.11-.1.19-.216.238-.349.048-.133.072-.282.072-.446v-.986H9.717L8.68 17.205l1.454.408a4.915 4.915 0 011.725-.323c.697 0 1.228.174 1.594.523.365.348.548.843.548 1.483 0 .334-.044.647-.132.94a2.102 2.102 0 01-.4.756 1.86 1.86 0 01-.675.501 2.333 2.333 0 01-.96.183c-.357 0-.66-.045-.91-.136a3.924 3.924 0 01-.654-.302 32.93 32.93 0 01-.502-.302.85.85 0 00-.45-.136.705.705 0 00-.595.315L8 22.101a5.723 5.723 0 001.577 1.05c.309.139.642.25.998.331.357.082.732.123 1.123.123zm9.257-.136c.272 0 .514-.05.727-.152.212-.102.375-.227.488-.375l2.746-3.918c.21-.289.398-.584.565-.884.167-.3.31-.61.43-.927.119-.317.21-.651.271-1.003a6.37 6.37 0 00.094-1.113c0-.6-.096-1.152-.289-1.653a3.73 3.73 0 00-.825-1.296 3.69 3.69 0 00-1.309-.846C23.337 11.1 22.756 11 22.11 11c-.64 0-1.223.108-1.747.323a4.17 4.17 0 00-1.347.871 3.836 3.836 0 00-.867 1.284 4.019 4.019 0 00-.306 1.56c0 .6.1 1.123.297 1.568.199.445.46.814.782 1.109a3.26 3.26 0 001.093.663 3.57 3.57 0 001.228.221c.357 0 .696-.041 1.016-.123a3.46 3.46 0 00.888-.361l-.238.306-.246.314-3.868 4.735h2.159zm1.122-6.604c-.618 0-1.087-.17-1.407-.51-.32-.34-.48-.836-.48-1.488 0-.283.044-.546.132-.79.088-.244.214-.455.378-.633a1.71 1.71 0 01.595-.417c.232-.099.496-.148.79-.148.29 0 .553.043.791.131.238.088.443.217.616.387s.308.378.404.625c.096.246.145.531.145.854 0 .289-.044.555-.132.799a1.803 1.803 0 01-.379.629c-.164.176-.37.313-.616.412-.246.1-.525.149-.837.149z" fill="#FFF" fill-rule="nonzero"/></g></svg>