<svg width="34" height="34" xmlns="http://www.w3.org/2000/svg"><g fill="none" fill-rule="evenodd"><circle fill="#C5882A" cx="17.5" cy="17.5" r="16.5"/><path d="M17 0c9.389 0 17 7.611 17 17s-7.611 17-17 17S0 26.389 0 17 7.611 0 17 0zm0 2C8.716 2 2 8.716 2 17c0 8.284 6.716 15 15 15 8.284 0 15-6.716 15-15 0-8.284-6.716-15-15-15z" fill="#FFF" fill-rule="nonzero"/><path d="M12.326 23.605c.663 0 1.266-.11 1.807-.331a4.285 4.285 0 001.394-.901c.388-.38.688-.825.9-1.335.213-.51.32-1.05.32-1.623 0-.623-.104-1.166-.31-1.628a3.386 3.386 0 00-.821-1.151 3.41 3.41 0 00-1.165-.689 4.03 4.03 0 00-1.343-.23c-.289 0-.558.026-.807.077a3.34 3.34 0 00-.697.221l.374-.45 3.655-4.429h-2.082c-.284 0-.536.054-.757.162a1.38 1.38 0 00-.502.382l-2.864 3.859c-.482.646-.84 1.275-1.075 1.887A5.023 5.023 0 008 19.236c0 .646.1 1.237.297 1.773a3.9 3.9 0 00.859 1.381c.374.385.827.684 1.36.897.533.212 1.136.319 1.81.319zm-.042-1.887a2.36 2.36 0 01-.888-.152 1.706 1.706 0 01-1.016-1.11 2.856 2.856 0 01-.128-.88c0-.311.05-.597.15-.858.098-.26.237-.486.416-.676.178-.19.392-.337.642-.442.249-.105.524-.157.824-.157.317 0 .606.048.867.144.26.097.485.237.671.421.188.184.332.41.434.676.102.266.153.567.153.901a2.148 2.148 0 01-.604 1.521c-.187.193-.41.343-.671.451-.26.108-.544.162-.85.162zm14.085 1.752v-1.377a.75.75 0 00-.217-.561c-.145-.142-.345-.213-.6-.213h-2.77c-.25 0-.516.024-.8.072-.283.048-.569.115-.858.2l2.618-2.678c.329-.334.64-.665.935-.994.295-.329.554-.667.778-1.016.224-.348.4-.715.531-1.1.13-.386.195-.805.195-1.259a3.63 3.63 0 00-.28-1.444 3.184 3.184 0 00-.79-1.118 3.64 3.64 0 00-1.229-.723A4.667 4.667 0 0022.288 11a5.2 5.2 0 00-1.555.225c-.482.15-.91.376-1.284.676-.373.3-.685.677-.934 1.13-.25.454-.42.98-.51 1.582l1.24.22c.318.051.563.03.736-.063.173-.094.31-.282.412-.566.051-.18.13-.348.238-.501a1.784 1.784 0 01.897-.667c.19-.065.398-.098.625-.098.515 0 .915.143 1.198.43.283.285.425.703.425 1.253 0 .312-.04.61-.119.893-.08.283-.198.562-.357.837a6.081 6.081 0 01-.595.841c-.238.286-.513.585-.824.897l-3.655 3.664a1.233 1.233 0 00-.315.471 1.423 1.423 0 00-.094.48v.765h8.552z" fill="#FFF" fill-rule="nonzero"/></g></svg>