<svg width="34" height="34" xmlns="http://www.w3.org/2000/svg"><g fill="none" fill-rule="evenodd"><circle fill="#C5882A" cx="17.5" cy="17.5" r="16.5"/><path d="M17 0c9.389 0 17 7.611 17 17s-7.611 17-17 17S0 26.389 0 17 7.611 0 17 0zm0 2C8.716 2 2 8.716 2 17c0 8.284 6.716 15 15 15 8.284 0 15-6.716 15-15 0-8.284-6.716-15-15-15z" fill="#FFF" fill-rule="nonzero"/><path d="M12.326 23.605c.663 0 1.266-.11 1.807-.331a4.285 4.285 0 001.394-.901c.388-.38.688-.825.9-1.335.213-.51.32-1.05.32-1.623 0-.623-.104-1.166-.31-1.628a3.386 3.386 0 00-.821-1.151 3.41 3.41 0 00-1.165-.689 4.03 4.03 0 00-1.343-.23c-.289 0-.558.026-.807.077a3.34 3.34 0 00-.697.221l.374-.45 3.655-4.429h-2.082c-.284 0-.536.054-.757.162a1.38 1.38 0 00-.502.382l-2.864 3.859c-.482.646-.84 1.275-1.075 1.887A5.023 5.023 0 008 19.236c0 .646.1 1.237.297 1.773a3.9 3.9 0 00.859 1.381c.374.385.827.684 1.36.897.533.212 1.136.319 1.81.319zm-.042-1.887a2.36 2.36 0 01-.888-.152 1.706 1.706 0 01-1.016-1.11 2.856 2.856 0 01-.128-.88c0-.311.05-.597.15-.858.098-.26.237-.486.416-.676.178-.19.392-.337.642-.442.249-.105.524-.157.824-.157.317 0 .606.048.867.144.26.097.485.237.671.421.188.184.332.41.434.676.102.266.153.567.153.901a2.148 2.148 0 01-.604 1.521c-.187.193-.41.343-.671.451-.26.108-.544.162-.85.162zm9.792 1.887c.567 0 1.11-.08 1.628-.242a3.97 3.97 0 001.364-.726c.391-.323.703-.724.935-1.203.232-.48.349-1.033.349-1.662 0-1.422-.709-2.366-2.125-2.83.305-.102.576-.23.811-.383.235-.153.434-.34.595-.561.162-.221.284-.48.366-.778.082-.297.123-.642.123-1.033a2.984 2.984 0 00-1.003-2.252 3.544 3.544 0 00-1.186-.684A4.688 4.688 0 0022.348 11c-.555 0-1.072.075-1.551.225-.48.15-.905.376-1.28.676-.373.3-.685.677-.934 1.13-.25.454-.42.98-.51 1.582l1.232.22c.323.051.57.03.74-.063.17-.094.308-.282.416-.566.051-.18.13-.348.238-.501a1.784 1.784 0 01.897-.667c.19-.065.398-.098.625-.098.515 0 .913.142 1.194.425.28.283.42.694.42 1.232 0 .255-.035.49-.106.706-.07.215-.2.4-.386.553-.188.152-.445.271-.774.357-.329.085-.75.127-1.267.127v1.649c.618 0 1.107.044 1.467.132.36.088.632.212.816.374.184.161.302.357.352.586.051.23.077.486.077.77 0 .215-.041.432-.123.65a1.728 1.728 0 01-.37.586 1.88 1.88 0 01-.612.421 2.11 2.11 0 01-.858.162c-.261 0-.492-.037-.693-.111a1.789 1.789 0 01-.54-.31 2.454 2.454 0 01-.43-.472 5.43 5.43 0 01-.36-.595.704.704 0 00-.506-.374c-.235-.051-.489-.02-.761.093l-1.037.425c.187.55.405 1.03.654 1.441.25.411.549.752.897 1.024.349.272.753.476 1.212.612.459.137.988.204 1.589.204z" fill="#FFF" fill-rule="nonzero"/></g></svg>