<svg width="34" height="34" xmlns="http://www.w3.org/2000/svg"><g fill="none" fill-rule="evenodd"><circle fill="#C5882A" cx="17.5" cy="17.5" r="16.5"/><path d="M17 0c9.389 0 17 7.611 17 17s-7.611 17-17 17S0 26.389 0 17 7.611 0 17 0zm0 2C8.716 2 2 8.716 2 17c0 8.284 6.716 15 15 15 8.284 0 15-6.716 15-15 0-8.284-6.716-15-15-15z" fill="#FFF" fill-rule="nonzero"/><path d="M12.326 23.478c.663 0 1.266-.11 1.807-.332a4.285 4.285 0 001.394-.9c.388-.38.688-.825.9-1.335.213-.51.32-1.051.32-1.623 0-.624-.104-1.166-.31-1.628a3.386 3.386 0 00-.821-1.152 3.41 3.41 0 00-1.165-.688 4.03 4.03 0 00-1.343-.23c-.289 0-.558.026-.807.076a3.34 3.34 0 00-.697.221l.374-.45 3.655-4.428h-2.082c-.284 0-.536.053-.757.161a1.38 1.38 0 00-.502.383L9.428 15.41c-.482.647-.84 1.275-1.075 1.888A5.023 5.023 0 008 19.108c0 .646.1 1.237.297 1.772a3.9 3.9 0 00.859 1.381c.374.386.827.685 1.36.897.533.213 1.136.319 1.81.319zm-.042-1.887a2.36 2.36 0 01-.888-.153 1.706 1.706 0 01-1.016-1.11 2.856 2.856 0 01-.128-.879c0-.312.05-.598.15-.859.098-.26.237-.485.416-.675.178-.19.392-.337.642-.442.249-.105.524-.157.824-.157.317 0 .606.048.867.144.26.096.485.237.671.42.188.185.332.41.434.677.102.266.153.566.153.9a2.148 2.148 0 01-.604 1.521c-.187.194-.41.344-.671.451-.26.108-.544.162-.85.162zm12.971 1.751V20.41h.96a.448.448 0 00.345-.132.45.45 0 00.123-.319v-1.326h-1.428V11h-2.227l-5.78 7.744.246 1.172a.564.564 0 00.226.357.66.66 0 00.404.137h5.091v2.932h2.04zm-2.04-4.709H19.73l3.57-4.972c-.028.238-.05.466-.064.684a9.537 9.537 0 00-.021.616v3.672z" fill="#FFF" fill-rule="nonzero"/></g></svg>