<svg width="34" height="34" xmlns="http://www.w3.org/2000/svg"><g fill="none" fill-rule="evenodd"><circle fill="#C5882A" cx="17.5" cy="17.5" r="16.5"/><path d="M17 0c9.389 0 17 7.611 17 17s-7.611 17-17 17S0 26.389 0 17 7.611 0 17 0zm0 2C8.716 2 2 8.716 2 17c0 8.284 6.716 15 15 15 8.284 0 15-6.716 15-15 0-8.284-6.716-15-15-15z" fill="#FFF" fill-rule="nonzero"/><path d="M12.326 23.605c.663 0 1.266-.11 1.807-.331a4.285 4.285 0 001.394-.901c.388-.38.688-.825.9-1.335.213-.51.32-1.05.32-1.623 0-.623-.104-1.166-.31-1.628a3.386 3.386 0 00-.821-1.151 3.41 3.41 0 00-1.165-.689 4.03 4.03 0 00-1.343-.23c-.289 0-.558.026-.807.077a3.34 3.34 0 00-.697.221l.374-.45 3.655-4.429h-2.082c-.284 0-.536.054-.757.162a1.38 1.38 0 00-.502.382l-2.864 3.859c-.482.646-.84 1.275-1.075 1.887A5.023 5.023 0 008 19.236c0 .646.1 1.237.297 1.773a3.9 3.9 0 00.859 1.381c.374.385.827.684 1.36.897.533.212 1.136.319 1.81.319zm-.042-1.887a2.36 2.36 0 01-.888-.152 1.706 1.706 0 01-1.016-1.11 2.856 2.856 0 01-.128-.88c0-.311.05-.597.15-.858.098-.26.237-.486.416-.676.178-.19.392-.337.642-.442.249-.105.524-.157.824-.157.317 0 .606.048.867.144.26.097.485.237.671.421.188.184.332.41.434.676.102.266.153.567.153.901a2.148 2.148 0 01-.604 1.521c-.187.193-.41.343-.671.451-.26.108-.544.162-.85.162zm8.687 1.752c.272 0 .514-.051.727-.153.212-.102.375-.227.488-.375l2.746-3.918c.21-.289.398-.584.565-.884.167-.3.31-.61.43-.927.119-.317.21-.651.271-1.003a6.37 6.37 0 00.094-1.113c0-.6-.096-1.152-.289-1.653a3.73 3.73 0 00-.825-1.296 3.69 3.69 0 00-1.309-.846C23.354 11.1 22.773 11 22.127 11c-.64 0-1.223.108-1.747.323a4.17 4.17 0 00-1.347.871 3.836 3.836 0 00-.867 1.284 4.019 4.019 0 00-.306 1.56c0 .6.1 1.123.297 1.568.199.445.46.814.782 1.109a3.26 3.26 0 001.093.663 3.57 3.57 0 001.228.221c.357 0 .696-.041 1.016-.123a3.46 3.46 0 00.888-.361l-.238.306-.246.314-3.868 4.735h2.159zm1.122-6.605c-.618 0-1.087-.17-1.407-.51-.32-.34-.48-.836-.48-1.488 0-.283.044-.546.132-.79.088-.244.214-.455.378-.633a1.71 1.71 0 01.595-.417c.232-.099.496-.148.79-.148.29 0 .553.043.791.131.238.088.443.217.616.387s.308.378.404.625c.096.246.145.531.145.854 0 .289-.044.555-.132.799a1.803 1.803 0 01-.378.629c-.165.176-.37.313-.617.412-.246.1-.525.149-.837.149z" fill="#FFF" fill-rule="nonzero"/></g></svg>