<svg width="34" height="34" xmlns="http://www.w3.org/2000/svg"><g fill="none" fill-rule="evenodd"><circle fill="#DC4646" cx="17.5" cy="17.5" r="16.5"/><path d="M17 0c9.389 0 17 7.611 17 17s-7.611 17-17 17S0 26.389 0 17 7.611 0 17 0zm0 2C8.716 2 2 8.716 2 17c0 8.284 6.716 15 15 15 8.284 0 15-6.716 15-15 0-8.284-6.716-15-15-15z" fill="#FFF" fill-rule="nonzero"/><path d="M15.575 23.334c.33 0 .59-.077.783-.23.192-.153.345-.337.459-.552l4.488-9.376c.062-.125.126-.278.19-.459.066-.181.098-.42.098-.714V11H13v1.564c0 .136.055.258.166.366.11.107.233.161.37.161h5.686a4.19 4.19 0 00-.4.502 6.17 6.17 0 00-.348.586l-4.598 9.155h1.7z" fill="#FFF" fill-rule="nonzero"/></g></svg>