<svg width="34" height="34" xmlns="http://www.w3.org/2000/svg"><g fill="none" fill-rule="evenodd"><circle fill="#9D9636" cx="17.5" cy="17.5" r="16.5"/><path d="M17 0c9.389 0 17 7.611 17 17s-7.611 17-17 17S0 26.389 0 17 7.611 0 17 0zm0 2C8.716 2 2 8.716 2 17c0 8.284 6.716 15 15 15 8.284 0 15-6.716 15-15 0-8.284-6.716-15-15-15z" fill="#FFF" fill-rule="nonzero"/><path d="M10.575 23.47c.33 0 .59-.077.783-.23.192-.153.345-.337.458-.552l4.489-9.376c.062-.125.126-.278.19-.459.066-.181.098-.42.098-.714v-1.003H8V12.7c0 .136.055.258.166.366.11.107.233.161.37.161h5.686a4.19 4.19 0 00-.4.502 6.17 6.17 0 00-.348.586L8.876 23.47h1.7zm11.467.136c.646 0 1.248-.127 1.806-.379a3.85 3.85 0 001.45-1.156c.408-.518.728-1.174.96-1.968.232-.793.349-1.728.349-2.805 0-1.076-.117-2.01-.349-2.8-.232-.79-.552-1.445-.96-1.964a3.85 3.85 0 00-1.45-1.156A4.336 4.336 0 0022.042 11c-.646 0-1.247.126-1.802.378a3.79 3.79 0 00-1.436 1.156c-.403.519-.719 1.173-.948 1.964-.23.79-.345 1.724-.345 2.8 0 1.077.115 2.012.345 2.806.23.793.545 1.449.947 1.967a3.79 3.79 0 001.437 1.156 4.307 4.307 0 001.802.378zm0-1.913c-.272 0-.534-.065-.786-.196-.252-.13-.476-.36-.672-.688-.195-.329-.352-.776-.471-1.343-.12-.567-.179-1.29-.179-2.168 0-.872.06-1.592.178-2.158.12-.567.277-1.015.472-1.344.196-.328.42-.558.672-.688a1.691 1.691 0 011.58 0c.259.13.487.36.685.688.198.33.358.777.48 1.344.122.566.183 1.286.183 2.159 0 .878-.06 1.6-.183 2.167-.122.567-.282 1.014-.48 1.343-.198.329-.426.558-.684.688-.258.13-.523.196-.795.196z" fill="#FFF" fill-rule="nonzero"/></g></svg>