<svg width="34" height="34" xmlns="http://www.w3.org/2000/svg"><g fill="none" fill-rule="evenodd"><circle fill="#9D9636" cx="17.5" cy="17.5" r="16.5"/><path d="M17 0c9.389 0 17 7.611 17 17s-7.611 17-17 17S0 26.389 0 17 7.611 0 17 0zm0 2C8.716 2 2 8.716 2 17c0 8.284 6.716 15 15 15 8.284 0 15-6.716 15-15 0-8.284-6.716-15-15-15z" fill="#FFF" fill-rule="nonzero"/><path d="M10.575 23.342c.33 0 .59-.076.783-.23.192-.152.345-.337.458-.552l4.489-9.375c.062-.125.126-.278.19-.46.066-.18.098-.419.098-.713v-1.004H8v1.565c0 .136.055.257.166.365.11.108.233.162.37.162h5.686a4.19 4.19 0 00-.4.501 6.17 6.17 0 00-.348.586l-4.598 9.155h1.7zm14.578 0V20.41h.96a.448.448 0 00.345-.132.45.45 0 00.123-.319v-1.326h-1.428V11h-2.227l-5.78 7.744.246 1.172a.564.564 0 00.226.357.66.66 0 00.404.137h5.091v2.932h2.04zm-2.04-4.709h-3.485l3.57-4.972c-.028.238-.05.466-.064.684a9.537 9.537 0 00-.021.616v3.672z" fill="#FFF" fill-rule="nonzero"/></g></svg>