<svg width="34" height="34" xmlns="http://www.w3.org/2000/svg"><g fill="none" fill-rule="evenodd"><circle fill="#9D9636" cx="17.5" cy="17.5" r="16.5"/><path d="M17 0c9.389 0 17 7.611 17 17s-7.611 17-17 17S0 26.389 0 17 7.611 0 17 0zm0 2C8.716 2 2 8.716 2 17c0 8.284 6.716 15 15 15 8.284 0 15-6.716 15-15 0-8.284-6.716-15-15-15z" fill="#FFF" fill-rule="nonzero"/><path d="M10.575 23.334c.33 0 .59-.077.783-.23.192-.153.345-.337.458-.552l4.489-9.376c.062-.125.126-.278.19-.459.066-.181.098-.42.098-.714V11H8v1.564c0 .136.055.258.166.366.11.107.233.161.37.161h5.686a4.19 4.19 0 00-.4.502 6.17 6.17 0 00-.348.586l-4.598 9.155h1.7zm10.898.136c.674 0 1.296-.108 1.865-.323a4.356 4.356 0 001.47-.906 4.14 4.14 0 00.965-1.394c.233-.54.349-1.14.349-1.798 0-.526-.085-1.02-.255-1.479a3.316 3.316 0 00-.76-1.198 3.583 3.583 0 00-1.25-.803c-.496-.196-1.067-.294-1.713-.294a7.134 7.134 0 00-1.42.145l.4-2.329h3.188c.249 0 .46-.027.633-.08.173-.055.314-.131.425-.23.11-.1.19-.216.238-.349.048-.133.072-.282.072-.446V11h-6.188l-1.037 6.069 1.454.408a4.915 4.915 0 011.725-.323c.697 0 1.228.174 1.594.523.365.348.548.843.548 1.483 0 .334-.044.647-.132.94a2.102 2.102 0 01-.4.756 1.86 1.86 0 01-.675.501 2.333 2.333 0 01-.96.183c-.358 0-.66-.045-.91-.136a3.924 3.924 0 01-.655-.302 32.93 32.93 0 01-.501-.302.85.85 0 00-.45-.136.705.705 0 00-.596.315l-.722.986a5.723 5.723 0 001.577 1.05c.309.139.642.25.998.331.357.082.731.123 1.122.123z" fill="#FFF" fill-rule="nonzero"/></g></svg>