<svg width="34" height="34" xmlns="http://www.w3.org/2000/svg"><g fill="none" fill-rule="evenodd"><circle fill="#9D9636" cx="17.5" cy="17.5" r="16.5"/><path d="M17 0c9.389 0 17 7.611 17 17s-7.611 17-17 17S0 26.389 0 17 7.611 0 17 0zm0 2C8.716 2 2 8.716 2 17c0 8.284 6.716 15 15 15 8.284 0 15-6.716 15-15 0-8.284-6.716-15-15-15z" fill="#FFF" fill-rule="nonzero"/><path d="M10.575 23.334c.33 0 .59-.077.783-.23.192-.153.345-.337.458-.552l4.489-9.376c.062-.125.126-.278.19-.459.066-.181.098-.42.098-.714V11H8v1.564c0 .136.055.258.166.366.11.107.233.161.37.161h5.686a4.19 4.19 0 00-.4.502 6.17 6.17 0 00-.348.586l-4.598 9.155h1.7zm11.51.136c.662 0 1.265-.111 1.806-.332a4.285 4.285 0 001.394-.901c.388-.38.688-.824.9-1.334.213-.51.32-1.052.32-1.624 0-.623-.104-1.166-.31-1.628a3.386 3.386 0 00-.821-1.151 3.41 3.41 0 00-1.165-.689 4.03 4.03 0 00-1.343-.23c-.288 0-.558.026-.807.077a3.34 3.34 0 00-.697.221l.374-.45L25.391 11h-2.082c-.284 0-.536.054-.757.162a1.38 1.38 0 00-.502.382l-2.864 3.859c-.482.646-.84 1.275-1.075 1.887a5.023 5.023 0 00-.353 1.81c0 .646.1 1.237.297 1.773a3.9 3.9 0 00.859 1.381c.374.385.827.684 1.36.897.533.212 1.136.319 1.81.319zm-.043-1.887a2.36 2.36 0 01-.888-.153 1.706 1.706 0 01-1.016-1.11 2.856 2.856 0 01-.128-.88c0-.311.05-.597.15-.858.098-.26.237-.486.416-.676.178-.19.392-.337.642-.442.249-.105.524-.157.824-.157.317 0 .606.048.867.145.26.096.485.236.672.42.186.184.331.41.433.676.102.266.153.567.153.901a2.148 2.148 0 01-.604 1.521c-.186.193-.41.343-.671.451-.26.108-.544.162-.85.162z" fill="#FFF" fill-rule="nonzero"/></g></svg>