<svg width="34" height="34" xmlns="http://www.w3.org/2000/svg"><g fill="none" fill-rule="evenodd"><circle fill="#7C984B" cx="17.5" cy="17.5" r="16.5"/><path d="M17 0c9.389 0 17 7.611 17 17s-7.611 17-17 17S0 26.389 0 17 7.611 0 17 0zm0 2C8.716 2 2 8.716 2 17c0 8.284 6.716 15 15 15 8.284 0 15-6.716 15-15 0-8.284-6.716-15-15-15z" fill="#FFF" fill-rule="nonzero"/><path d="M12.335 24.136c.646 0 1.235-.086 1.768-.26a4.105 4.105 0 001.369-.73c.38-.315.674-.696.883-1.143.21-.448.315-.947.315-1.497 0-.702-.17-1.304-.51-1.806-.34-.501-.884-.877-1.632-1.126.584-.255 1.019-.612 1.305-1.071.286-.459.429-1.006.429-1.64 0-.476-.096-.917-.289-1.322a3.154 3.154 0 00-.812-1.054 3.889 3.889 0 00-1.245-.701 4.72 4.72 0 00-1.581-.255c-.572 0-1.1.085-1.581.255-.482.17-.897.403-1.245.7-.349.298-.62.65-.812 1.055a3.038 3.038 0 00-.289 1.322c0 .634.143 1.181.43 1.64.285.459.72.816 1.304 1.071-.748.25-1.292.625-1.632 1.126-.34.502-.51 1.104-.51 1.806 0 .55.105 1.049.315 1.497.21.447.504.828.883 1.143.38.314.836.558 1.369.73.533.174 1.122.26 1.768.26zm0-7.412c-.323 0-.59-.051-.799-.153a1.329 1.329 0 01-.502-.408 1.581 1.581 0 01-.263-.582 2.959 2.959 0 01-.077-.676c0-.215.032-.422.094-.62a1.42 1.42 0 01.293-.523c.133-.15.303-.27.51-.362.207-.09.455-.136.744-.136s.537.046.744.136c.207.091.377.212.51.362s.23.324.293.522c.062.199.094.406.094.621 0 .232-.026.458-.077.676a1.581 1.581 0 01-.263.582c-.125.17-.292.306-.502.408-.21.102-.476.153-.799.153zm0 5.619c-.323 0-.605-.049-.846-.145a1.664 1.664 0 01-.599-.395 1.622 1.622 0 01-.357-.595 2.262 2.262 0 01-.119-.744c0-.612.157-1.087.472-1.424.314-.337.797-.505 1.449-.505s1.135.168 1.45.505c.314.337.471.812.471 1.424 0 .266-.04.514-.119.744-.08.23-.198.428-.357.595a1.664 1.664 0 01-.6.395c-.24.096-.522.145-.845.145zm9.843 1.793c.646 0 1.248-.126 1.806-.378a3.85 3.85 0 001.45-1.156c.407-.519.728-1.175.96-1.968.232-.793.349-1.728.349-2.805 0-1.077-.117-2.01-.349-2.8-.232-.791-.552-1.446-.96-1.964a3.85 3.85 0 00-1.45-1.156 4.336 4.336 0 00-1.806-.379c-.646 0-1.247.127-1.802.379a3.79 3.79 0 00-1.437 1.156c-.402.518-.718 1.173-.947 1.963-.23.79-.345 1.724-.345 2.801 0 1.077.115 2.012.345 2.805.23.793.545 1.45.947 1.968a3.79 3.79 0 001.437 1.156 4.307 4.307 0 001.802.378zm0-1.912c-.272 0-.534-.066-.786-.196s-.476-.36-.672-.688c-.195-.33-.352-.777-.471-1.343-.12-.567-.179-1.29-.179-2.168 0-.873.06-1.592.178-2.159.12-.567.277-1.014.472-1.343.196-.329.42-.558.672-.688a1.691 1.691 0 011.58 0c.259.13.487.36.685.688.198.329.358.776.48 1.343s.183 1.286.183 2.159c0 .878-.06 1.6-.183 2.168-.122.566-.282 1.014-.48 1.343-.198.328-.426.558-.684.688-.258.13-.523.196-.795.196z" fill="#FFF" fill-rule="nonzero"/></g></svg>