<svg width="34" height="34" xmlns="http://www.w3.org/2000/svg"><g fill="none" fill-rule="evenodd"><circle fill="#7C984B" cx="17.5" cy="17.5" r="16.5"/><path d="M17 0c9.389 0 17 7.611 17 17s-7.611 17-17 17S0 26.389 0 17 7.611 0 17 0zm0 2C8.716 2 2 8.716 2 17c0 8.284 6.716 15 15 15 8.284 0 15-6.716 15-15 0-8.284-6.716-15-15-15z" fill="#FFF" fill-rule="nonzero"/><path d="M12.335 23.605c.646 0 1.235-.086 1.768-.259a4.105 4.105 0 001.369-.73c.38-.315.674-.696.883-1.144.21-.448.315-.946.315-1.496 0-.703-.17-1.305-.51-1.806-.34-.502-.884-.877-1.632-1.127.584-.255 1.019-.611 1.305-1.07.286-.46.429-1.006.429-1.641 0-.476-.096-.917-.289-1.322a3.154 3.154 0 00-.812-1.054 3.889 3.889 0 00-1.245-.701A4.72 4.72 0 0012.335 11c-.572 0-1.1.085-1.581.255-.482.17-.897.404-1.245.701-.349.298-.62.65-.812 1.054a3.038 3.038 0 00-.289 1.322c0 .635.143 1.181.43 1.64.285.46.72.816 1.304 1.072-.748.249-1.292.624-1.632 1.126-.34.501-.51 1.103-.51 1.806 0 .55.105 1.048.315 1.496.21.448.504.829.883 1.143.38.315.836.558 1.369.731.533.173 1.122.26 1.768.26zm0-7.412c-.323 0-.59-.05-.799-.152a1.329 1.329 0 01-.502-.409 1.581 1.581 0 01-.263-.582 2.959 2.959 0 01-.077-.676c0-.215.032-.422.094-.62a1.42 1.42 0 01.293-.523c.133-.15.303-.27.51-.361.207-.09.455-.136.744-.136s.537.045.744.136c.207.09.377.211.51.361s.23.325.293.523c.062.198.094.405.094.62 0 .233-.026.458-.077.676a1.581 1.581 0 01-.263.582c-.125.17-.292.306-.502.409-.21.101-.476.152-.799.152zm0 5.619c-.323 0-.605-.048-.846-.145a1.664 1.664 0 01-.599-.395 1.622 1.622 0 01-.357-.595 2.262 2.262 0 01-.119-.744c0-.611.157-1.086.472-1.423.314-.337.797-.506 1.449-.506s1.135.169 1.45.506c.314.337.471.811.471 1.423 0 .267-.04.515-.119.744-.08.23-.198.428-.357.595a1.664 1.664 0 01-.6.396c-.24.096-.522.144-.845.144zm9.886 1.793c.663 0 1.265-.11 1.806-.331a4.285 4.285 0 001.394-.901c.388-.38.688-.825.9-1.335.213-.51.32-1.05.32-1.623 0-.623-.104-1.166-.31-1.628a3.386 3.386 0 00-.821-1.151 3.41 3.41 0 00-1.165-.689 4.03 4.03 0 00-1.342-.23c-.29 0-.559.026-.808.077a3.34 3.34 0 00-.697.221l.374-.45 3.655-4.429h-2.082c-.284 0-.536.054-.757.162a1.38 1.38 0 00-.502.382l-2.864 3.859c-.482.646-.84 1.275-1.075 1.887a5.023 5.023 0 00-.353 1.81c0 .646.1 1.237.298 1.773a3.9 3.9 0 00.858 1.381c.374.385.827.684 1.36.897.533.212 1.136.319 1.81.319zm-.043-1.887a2.36 2.36 0 01-.888-.152 1.706 1.706 0 01-1.016-1.11 2.856 2.856 0 01-.128-.88c0-.311.05-.597.15-.858.098-.26.237-.486.416-.676.178-.19.392-.337.642-.442.249-.105.524-.157.824-.157.317 0 .606.048.867.144.26.097.484.237.671.421.188.184.332.41.434.676.102.266.153.567.153.901a2.148 2.148 0 01-.604 1.521c-.186.193-.41.343-.671.451-.26.108-.544.162-.85.162z" fill="#FFF" fill-rule="nonzero"/></g></svg>