<svg width="34" height="34" xmlns="http://www.w3.org/2000/svg"><g fill="none" fill-rule="evenodd"><circle fill="#57A15B" cx="17.5" cy="17.5" r="16.5"/><path d="M17 0c9.389 0 17 7.611 17 17s-7.611 17-17 17S0 26.389 0 17 7.611 0 17 0zm0 2C8.716 2 2 8.716 2 17c0 8.284 6.716 15 15 15 8.284 0 15-6.716 15-15 0-8.284-6.716-15-15-15z" fill="#FFF" fill-rule="nonzero"/><path d="M11.111 23.47c.272 0 .514-.051.727-.153.212-.102.375-.227.489-.375l2.745-3.918c.21-.289.398-.584.565-.884.167-.3.31-.61.43-.927.119-.317.21-.651.271-1.003a6.37 6.37 0 00.094-1.113c0-.6-.096-1.152-.289-1.653a3.73 3.73 0 00-.825-1.296 3.69 3.69 0 00-1.309-.846C13.494 11.1 12.913 11 12.267 11c-.64 0-1.223.108-1.747.323a4.17 4.17 0 00-1.347.871 3.836 3.836 0 00-.867 1.284A4.019 4.019 0 008 15.038c0 .6.1 1.123.297 1.568.199.445.46.814.782 1.109a3.26 3.26 0 001.093.663 3.57 3.57 0 001.228.221c.357 0 .696-.041 1.016-.123a3.46 3.46 0 00.888-.361l-.238.306-.247.314-3.867 4.735h2.159zm1.122-6.605c-.618 0-1.087-.17-1.407-.51-.32-.34-.48-.836-.48-1.488 0-.283.044-.546.132-.79.088-.244.214-.455.378-.633a1.71 1.71 0 01.595-.417c.232-.099.496-.148.79-.148.29 0 .553.043.791.131.238.088.443.217.616.387s.308.378.404.625c.096.246.145.531.145.854 0 .289-.044.555-.132.799a1.803 1.803 0 01-.378.629c-.165.176-.37.313-.617.412-.246.1-.525.149-.837.149zm9.911 6.74c.646 0 1.248-.126 1.806-.378a3.85 3.85 0 001.45-1.156c.408-.518.728-1.174.96-1.968.232-.793.349-1.728.349-2.805 0-1.076-.117-2.01-.349-2.8-.232-.79-.552-1.445-.96-1.964a3.85 3.85 0 00-1.45-1.156A4.336 4.336 0 0022.144 11c-.646 0-1.247.126-1.802.378a3.79 3.79 0 00-1.436 1.156c-.403.519-.719 1.173-.948 1.964-.23.79-.345 1.724-.345 2.8 0 1.077.115 2.012.345 2.806.23.793.545 1.449.948 1.967a3.79 3.79 0 001.436 1.156 4.307 4.307 0 001.802.378zm0-1.912c-.272 0-.534-.065-.786-.196-.252-.13-.476-.36-.672-.688-.195-.329-.352-.776-.471-1.343-.12-.567-.179-1.29-.179-2.168 0-.872.06-1.592.178-2.158.12-.567.277-1.015.472-1.344.196-.328.42-.558.672-.688a1.691 1.691 0 011.58 0c.259.13.487.36.685.688.198.33.358.777.48 1.344.122.566.183 1.286.183 2.159 0 .878-.06 1.6-.183 2.167-.122.567-.282 1.014-.48 1.343-.198.329-.426.558-.684.688-.258.13-.523.196-.795.196z" fill="#FFF" fill-rule="nonzero"/></g></svg>