<svg width="34" height="34" xmlns="http://www.w3.org/2000/svg"><g fill="none" fill-rule="evenodd"><circle fill="#57A15B" cx="17.5" cy="17.5" r="16.5"/><path d="M17 0c9.389 0 17 7.611 17 17s-7.611 17-17 17S0 26.389 0 17 7.611 0 17 0zm0 2C8.716 2 2 8.716 2 17c0 8.284 6.716 15 15 15 8.284 0 15-6.716 15-15 0-8.284-6.716-15-15-15z" fill="#FFF" fill-rule="nonzero"/><path d="M11.111 23.47c.272 0 .514-.051.727-.153.212-.102.375-.227.489-.375l2.745-3.918c.21-.289.398-.584.565-.884.167-.3.31-.61.43-.927.119-.317.21-.651.271-1.003a6.37 6.37 0 00.094-1.113c0-.6-.096-1.152-.289-1.653a3.73 3.73 0 00-.825-1.296 3.69 3.69 0 00-1.309-.846C13.494 11.1 12.913 11 12.267 11c-.64 0-1.223.108-1.747.323a4.17 4.17 0 00-1.347.871 3.836 3.836 0 00-.867 1.284A4.019 4.019 0 008 15.038c0 .6.1 1.123.297 1.568.199.445.46.814.782 1.109a3.26 3.26 0 001.093.663 3.57 3.57 0 001.228.221c.357 0 .696-.041 1.016-.123a3.46 3.46 0 00.888-.361l-.238.306-.247.314-3.867 4.735h2.159zm1.122-6.605c-.618 0-1.087-.17-1.407-.51-.32-.34-.48-.836-.48-1.488 0-.283.044-.546.132-.79.088-.244.214-.455.378-.633a1.71 1.71 0 01.595-.417c.232-.099.496-.148.79-.148.29 0 .553.043.791.131.238.088.443.217.616.387s.308.378.404.625c.096.246.145.531.145.854 0 .289-.044.555-.132.799a1.803 1.803 0 01-.378.629c-.165.176-.37.313-.617.412-.246.1-.525.149-.837.149zm9.843 6.74c.567 0 1.11-.08 1.628-.242a3.97 3.97 0 001.364-.726c.391-.323.703-.724.935-1.203.232-.48.349-1.033.349-1.662 0-1.422-.709-2.366-2.125-2.83.305-.102.576-.23.811-.383.235-.153.434-.34.595-.561.162-.221.284-.48.366-.778.082-.297.123-.642.123-1.033a2.984 2.984 0 00-1.003-2.252 3.544 3.544 0 00-1.186-.684A4.688 4.688 0 0022.348 11c-.555 0-1.072.075-1.551.225-.48.15-.905.376-1.28.676-.373.3-.685.677-.934 1.13-.25.454-.42.98-.51 1.582l1.232.22c.323.051.57.03.74-.063.17-.094.308-.282.416-.566.051-.18.13-.348.238-.501a1.784 1.784 0 01.897-.667c.19-.065.398-.098.625-.098.515 0 .913.142 1.194.425.28.283.42.694.42 1.232 0 .255-.035.49-.106.706-.07.215-.2.4-.386.553-.188.152-.445.271-.774.357-.329.085-.75.127-1.267.127v1.649c.618 0 1.107.044 1.467.132.36.088.632.212.816.374.184.161.302.357.352.586.051.23.077.486.077.77 0 .215-.041.432-.123.65a1.728 1.728 0 01-.37.586 1.88 1.88 0 01-.612.421 2.11 2.11 0 01-.858.162c-.261 0-.492-.037-.693-.111a1.789 1.789 0 01-.54-.31 2.454 2.454 0 01-.43-.472 5.43 5.43 0 01-.36-.595.704.704 0 00-.506-.374c-.235-.051-.489-.02-.761.093l-1.037.425c.187.55.405 1.03.654 1.441.25.411.549.752.897 1.024.349.272.753.476 1.212.612.459.137.988.204 1.589.204z" fill="#FFF" fill-rule="nonzero"/></g></svg>