<svg width="34" height="34" xmlns="http://www.w3.org/2000/svg"><g fill="none" fill-rule="evenodd"><circle fill="#57A15B" cx="17.5" cy="17.5" r="16.5"/><path d="M17 0c9.389 0 17 7.611 17 17s-7.611 17-17 17S0 26.389 0 17 7.611 0 17 0zm0 2C8.716 2 2 8.716 2 17c0 8.284 6.716 15 15 15 8.284 0 15-6.716 15-15 0-8.284-6.716-15-15-15z" fill="#FFF" fill-rule="nonzero"/><path d="M11.111 23.47c.272 0 .514-.051.727-.153.212-.102.375-.227.489-.375l2.745-3.918c.21-.289.398-.584.565-.884.167-.3.31-.61.43-.927.119-.317.21-.651.271-1.003a6.37 6.37 0 00.094-1.113c0-.6-.096-1.152-.289-1.653a3.73 3.73 0 00-.825-1.296 3.69 3.69 0 00-1.309-.846C13.494 11.1 12.913 11 12.267 11c-.64 0-1.223.108-1.747.323a4.17 4.17 0 00-1.347.871 3.836 3.836 0 00-.867 1.284A4.019 4.019 0 008 15.038c0 .6.1 1.123.297 1.568.199.445.46.814.782 1.109a3.26 3.26 0 001.093.663 3.57 3.57 0 001.228.221c.357 0 .696-.041 1.016-.123a3.46 3.46 0 00.888-.361l-.238.306-.247.314-3.867 4.735h2.159zm1.122-6.605c-.618 0-1.087-.17-1.407-.51-.32-.34-.48-.836-.48-1.488 0-.283.044-.546.132-.79.088-.244.214-.455.378-.633a1.71 1.71 0 01.595-.417c.232-.099.496-.148.79-.148.29 0 .553.043.791.131.238.088.443.217.616.387s.308.378.404.625c.096.246.145.531.145.854 0 .289-.044.555-.132.799a1.803 1.803 0 01-.378.629c-.165.176-.37.313-.617.412-.246.1-.525.149-.837.149zm9.928 6.74c.646 0 1.235-.086 1.768-.259a4.105 4.105 0 001.369-.73c.38-.315.674-.696.884-1.144.21-.448.314-.946.314-1.496 0-.703-.17-1.305-.51-1.806-.34-.502-.884-.877-1.632-1.127.584-.255 1.019-.611 1.305-1.07.286-.46.429-1.006.429-1.641 0-.476-.096-.917-.289-1.322a3.154 3.154 0 00-.812-1.054 3.889 3.889 0 00-1.245-.701A4.72 4.72 0 0022.161 11c-.572 0-1.1.085-1.581.255-.482.17-.897.404-1.245.701-.349.298-.62.65-.812 1.054a3.038 3.038 0 00-.289 1.322c0 .635.143 1.181.43 1.64.285.46.72.816 1.304 1.072-.748.249-1.292.624-1.632 1.126-.34.501-.51 1.103-.51 1.806 0 .55.105 1.048.314 1.496.21.448.505.829.884 1.143.38.315.836.558 1.369.731.533.173 1.122.26 1.768.26zm0-7.412c-.323 0-.59-.05-.799-.152a1.329 1.329 0 01-.502-.409 1.581 1.581 0 01-.263-.582 2.959 2.959 0 01-.077-.676c0-.215.032-.422.094-.62a1.42 1.42 0 01.293-.523c.133-.15.303-.27.51-.361.207-.09.455-.136.744-.136s.537.045.744.136c.207.09.377.211.51.361s.23.325.293.523c.062.198.094.405.094.62 0 .233-.026.458-.077.676a1.581 1.581 0 01-.264.582c-.124.17-.291.306-.501.409-.21.101-.476.152-.799.152zm0 5.619c-.323 0-.605-.048-.846-.145a1.664 1.664 0 01-.599-.395 1.622 1.622 0 01-.357-.595 2.262 2.262 0 01-.119-.744c0-.611.157-1.086.472-1.423.314-.337.797-.506 1.449-.506s1.135.169 1.45.506c.314.337.471.811.471 1.423 0 .267-.04.515-.119.744-.08.23-.198.428-.357.595a1.664 1.664 0 01-.6.396c-.24.096-.522.144-.845.144z" fill="#FFF" fill-rule="nonzero"/></g></svg>