<svg width="34" height="34" xmlns="http://www.w3.org/2000/svg"><g fill="none" fill-rule="evenodd"><circle fill="#57A15B" cx="17.5" cy="17.5" r="16.5"/><path d="M17 0c9.389 0 17 7.611 17 17s-7.611 17-17 17S0 26.389 0 17 7.611 0 17 0zm0 2C8.716 2 2 8.716 2 17c0 8.284 6.716 15 15 15 8.284 0 15-6.716 15-15 0-8.284-6.716-15-15-15z" fill="#FFF" fill-rule="nonzero"/><path d="M11.111 23.47c.272 0 .514-.051.727-.153.212-.102.375-.227.489-.375l2.745-3.918c.21-.289.398-.584.565-.884.167-.3.31-.61.43-.927.119-.317.21-.651.271-1.003a6.37 6.37 0 00.094-1.113c0-.6-.096-1.152-.289-1.653a3.73 3.73 0 00-.825-1.296 3.69 3.69 0 00-1.309-.846C13.494 11.1 12.913 11 12.267 11c-.64 0-1.223.108-1.747.323a4.17 4.17 0 00-1.347.871 3.836 3.836 0 00-.867 1.284A4.019 4.019 0 008 15.038c0 .6.1 1.123.297 1.568.199.445.46.814.782 1.109a3.26 3.26 0 001.093.663 3.57 3.57 0 001.228.221c.357 0 .696-.041 1.016-.123a3.46 3.46 0 00.888-.361l-.238.306-.247.314-3.867 4.735h2.159zm1.122-6.605c-.618 0-1.087-.17-1.407-.51-.32-.34-.48-.836-.48-1.488 0-.283.044-.546.132-.79.088-.244.214-.455.378-.633a1.71 1.71 0 01.595-.417c.232-.099.496-.148.79-.148.29 0 .553.043.791.131.238.088.443.217.616.387s.308.378.404.625c.096.246.145.531.145.854 0 .289-.044.555-.132.799a1.803 1.803 0 01-.378.629c-.165.176-.37.313-.617.412-.246.1-.525.149-.837.149zm8.738 6.605c.272 0 .514-.051.727-.153.212-.102.375-.227.488-.375l2.746-3.918c.21-.289.398-.584.565-.884.167-.3.31-.61.43-.927.119-.317.21-.651.271-1.003a6.37 6.37 0 00.094-1.113c0-.6-.096-1.152-.289-1.653a3.73 3.73 0 00-.825-1.296 3.69 3.69 0 00-1.309-.846C23.354 11.1 22.773 11 22.127 11c-.64 0-1.223.108-1.747.323a4.17 4.17 0 00-1.347.871 3.836 3.836 0 00-.867 1.284 4.019 4.019 0 00-.306 1.56c0 .6.1 1.123.297 1.568.199.445.46.814.782 1.109a3.26 3.26 0 001.093.663 3.57 3.57 0 001.228.221c.357 0 .696-.041 1.016-.123a3.46 3.46 0 00.888-.361l-.238.306-.246.314-3.868 4.735h2.159zm1.122-6.605c-.618 0-1.087-.17-1.407-.51-.32-.34-.48-.836-.48-1.488 0-.283.044-.546.132-.79.088-.244.214-.455.378-.633a1.71 1.71 0 01.595-.417c.232-.099.496-.148.79-.148.29 0 .553.043.791.131.238.088.443.217.616.387s.308.378.404.625c.096.246.145.531.145.854 0 .289-.044.555-.132.799a1.803 1.803 0 01-.378.629c-.165.176-.37.313-.617.412-.246.1-.525.149-.837.149z" fill="#FFF" fill-rule="nonzero"/></g></svg>